<svg data-v-423bf9ae="" xmlns="http://www.w3.org/2000/svg" viewBox="0 0 687 90" class="iconLeft"><!----><!----><!----><g data-v-423bf9ae="" id="48192bd8-ad4d-40f8-92c1-5fb968b6938b" fill="#2A2F1F" transform="matrix(4.535147222295708,0,0,4.535147222295708,161.0733279502311,2.3015872785689524)"><path d="M10.05 3.78L10.05 13.02L9.38 13.02L9.38 6.13L9.46 4.45L9.45 4.45L6.08 13.02L5.43 13.02L2.06 4.45L2.04 4.45L2.13 6.13L2.13 13.02L1.46 13.02L1.46 3.78L2.51 3.78L5.29 10.78L5.75 12.19L5.77 12.19L6.22 10.79L9.00 3.78L10.05 3.78ZM13.10 4.66L13.10 4.66Q12.84 4.66 12.68 4.50L12.68 4.50L12.68 4.50Q12.52 4.34 12.52 4.07L12.52 4.07L12.52 4.07Q12.52 3.81 12.68 3.65L12.68 3.65L12.68 3.65Q12.84 3.49 13.10 3.49L13.10 3.49L13.10 3.49Q13.37 3.49 13.53 3.65L13.53 3.65L13.53 3.65Q13.69 3.81 13.69 4.07L13.69 4.07L13.69 4.07Q13.69 4.34 13.53 4.50L13.53 4.50L13.53 4.50Q13.37 4.66 13.10 4.66L13.10 4.66ZM13.45 6.02L13.45 13.02L12.75 13.02L12.75 6.02L13.45 6.02ZM21.38 6.02L22.01 6.02L22.01 15.96L21.31 15.96L21.31 11.54L21.31 11.54Q20.99 12.29 20.31 12.73L20.31 12.73L20.31 12.73Q19.64 13.16 18.73 13.16L18.73 13.16L18.73 13.16Q17.25 13.16 16.39 12.19L16.39 12.19L16.39 12.19Q15.53 11.23 15.53 9.52L15.53 9.52L15.53 9.52Q15.53 7.81 16.39 6.85L16.39 6.85L16.39 6.85Q17.25 5.88 18.73 5.88L18.73 5.88L18.73 5.88Q19.67 5.88 20.36 6.33L20.36 6.33L20.36 6.33Q21.04 6.79 21.34 7.59L21.34 7.59L21.38 6.02ZM18.82 12.54L18.82 12.54Q19.91 12.54 20.57 11.81L20.57 11.81L20.57 11.81Q21.24 11.07 21.31 9.81L21.31 9.81L21.31 9.23L21.31 9.23Q21.25 7.97 20.58 7.23L20.58 7.23L20.58 7.23Q19.91 6.50 18.82 6.50L18.82 6.50L18.82 6.50Q17.60 6.50 16.91 7.30L16.91 7.30L16.91 7.30Q16.23 8.11 16.23 9.52L16.23 9.52L16.23 9.52Q16.23 10.93 16.91 11.74L16.91 11.74L16.91 11.74Q17.60 12.54 18.82 12.54L18.82 12.54ZM30.13 12.56L30.13 12.56Q30.48 12.56 30.67 12.46L30.67 12.46L30.63 13.02L30.63 13.02Q30.38 13.16 29.95 13.16L29.95 13.16L29.95 13.16Q29.46 13.16 29.15 12.89L29.15 12.89L29.15 12.89Q28.84 12.63 28.80 11.97L28.80 11.97L28.80 11.97Q28.48 12.53 27.76 12.84L27.76 12.84L27.76 12.84Q27.05 13.16 26.26 13.16L26.26 13.16L26.26 13.16Q25.23 13.16 24.61 12.70L24.61 12.70L24.61 12.70Q23.98 12.24 23.98 11.38L23.98 11.38L23.98 11.38Q23.98 9.76 26.64 9.28L26.64 9.28L28.78 8.90L28.78 8.29L28.78 8.29Q28.78 7.45 28.29 6.97L28.29 6.97L28.29 6.97Q27.79 6.50 26.88 6.50L26.88 6.50L26.88 6.50Q25.21 6.50 24.64 7.98L24.64 7.98L24.11 7.59L24.11 7.59Q24.42 6.76 25.13 6.32L25.13 6.32L25.13 6.32Q25.84 5.88 26.88 5.88L26.88 5.88L26.88 5.88Q28.10 5.88 28.79 6.47L28.79 6.47L28.79 6.47Q29.48 7.07 29.48 8.20L29.48 8.20L29.48 11.82L29.48 11.82Q29.48 12.56 30.13 12.56L30.13 12.56ZM26.33 12.54L26.33 12.54Q26.92 12.54 27.48 12.34L27.48 12.34L27.48 12.34Q28.04 12.14 28.41 11.74L28.41 11.74L28.41 11.74Q28.78 11.34 28.78 10.78L28.78 10.78L28.78 9.48L26.87 9.83L26.87 9.83Q25.73 10.04 25.21 10.42L25.21 10.42L25.21 10.42Q24.70 10.79 24.70 11.38L24.70 11.38L24.70 11.38Q24.70 11.94 25.13 12.24L25.13 12.24L25.13 12.24Q25.56 12.54 26.33 12.54L26.33 12.54ZM37.39 6.02L34.02 14.31L34.02 14.31Q33.63 15.26 33.15 15.64L33.15 15.64L33.15 15.64Q32.68 16.03 31.95 16.03L31.95 16.03L31.95 16.03Q31.08 16.03 30.62 15.51L30.62 15.51L30.88 14.91L30.88 14.91Q31.22 15.41 31.95 15.41L31.95 15.41L31.95 15.41Q32.44 15.41 32.78 15.14L32.78 15.14L32.78 15.14Q33.12 14.87 33.42 14.14L33.42 14.14L33.87 13.02L33.14 11.28L30.91 6.02L31.71 6.02L33.85 11.33L34.20 12.26L34.58 11.26L36.64 6.02L37.39 6.02ZM44.65 9.35L44.65 9.35Q44.65 9.59 44.62 9.81L44.62 9.81L39.06 9.81L39.06 9.81Q39.13 11.10 39.82 11.82L39.82 11.82L39.82 11.82Q40.52 12.54 41.68 12.54L41.68 12.54L41.68 12.54Q42.50 12.54 43.10 12.21L43.10 12.21L43.10 12.21Q43.69 11.87 43.96 11.26L43.96 11.26L44.55 11.56L44.55 11.56Q44.16 12.33 43.43 12.75L43.43 12.75L43.43 12.75Q42.70 13.16 41.68 13.16L41.68 13.16L41.68 13.16Q40.12 13.16 39.25 12.19L39.25 12.19L39.25 12.19Q38.37 11.23 38.37 9.52L38.37 9.52L38.37 9.52Q38.37 7.81 39.22 6.85L39.22 6.85L39.22 6.85Q40.07 5.88 41.59 5.88L41.59 5.88L41.59 5.88Q43.02 5.88 43.83 6.83L43.83 6.83L43.83 6.83Q44.65 7.78 44.65 9.35L44.65 9.35ZM41.59 6.50L41.59 6.50Q40.46 6.50 39.80 7.20L39.80 7.20L39.80 7.20Q39.14 7.91 39.06 9.18L39.06 9.18L43.99 9.18L43.99 9.18Q43.92 7.92 43.30 7.21L43.30 7.21L43.30 7.21Q42.67 6.50 41.59 6.50L41.59 6.50ZM47.29 2.80L47.29 11.33L47.29 11.33Q47.29 11.97 47.50 12.24L47.50 12.24L47.50 12.24Q47.70 12.50 48.17 12.50L48.17 12.50L48.17 12.50Q48.45 12.50 48.65 12.46L48.65 12.46L48.65 12.46Q48.85 12.42 49.10 12.31L49.10 12.31L49.00 12.98L49.00 12.98Q48.61 13.16 48.08 13.16L48.08 13.16L48.08 13.16Q47.32 13.16 46.96 12.73L46.96 12.73L46.96 12.73Q46.59 12.31 46.59 11.40L46.59 11.40L46.59 2.80L47.29 2.80ZM57.69 3.78L57.69 3.78Q59.14 3.78 59.98 4.50L59.98 4.50L59.98 4.50Q60.83 5.22 60.83 6.48L60.83 6.48L60.83 6.48Q60.83 7.74 59.98 8.47L59.98 8.47L59.98 8.47Q59.14 9.20 57.69 9.20L57.69 9.20L55.33 9.20L55.33 13.02L54.63 13.02L54.63 3.78L57.69 3.78ZM57.61 8.54L57.61 8.54Q58.81 8.54 59.45 8.01L59.45 8.01L59.45 8.01Q60.09 7.48 60.09 6.48L60.09 6.48L60.09 6.48Q60.09 5.50 59.45 4.96L59.45 4.96L59.45 4.96Q58.81 4.42 57.61 4.42L57.61 4.42L55.33 4.42L55.33 8.54L57.61 8.54ZM68.32 9.35L68.32 9.35Q68.32 9.59 68.29 9.81L68.29 9.81L62.73 9.81L62.73 9.81Q62.80 11.10 63.50 11.82L63.50 11.82L63.50 11.82Q64.19 12.54 65.35 12.54L65.35 12.54L65.35 12.54Q66.18 12.54 66.77 12.21L66.77 12.21L66.77 12.21Q67.37 11.87 67.63 11.26L67.63 11.26L68.22 11.56L68.22 11.56Q67.83 12.33 67.10 12.75L67.10 12.75L67.10 12.75Q66.37 13.16 65.35 13.16L65.35 13.16L65.35 13.16Q63.80 13.16 62.92 12.19L62.92 12.19L62.92 12.19Q62.05 11.23 62.05 9.52L62.05 9.52L62.05 9.52Q62.05 7.81 62.90 6.85L62.90 6.85L62.90 6.85Q63.74 5.88 65.27 5.88L65.27 5.88L65.27 5.88Q66.70 5.88 67.51 6.83L67.51 6.83L67.51 6.83Q68.32 7.78 68.32 9.35L68.32 9.35ZM65.27 6.50L65.27 6.50Q64.13 6.50 63.48 7.20L63.48 7.20L63.48 7.20Q62.82 7.91 62.73 9.18L62.73 9.18L67.66 9.18L67.66 9.18Q67.59 7.92 66.97 7.21L66.97 7.21L66.97 7.21Q66.35 6.50 65.27 6.50L65.27 6.50ZM73.78 12.00L74.03 12.57L74.03 12.57Q73.75 12.85 73.35 13.01L73.35 13.01L73.35 13.01Q72.94 13.16 72.45 13.16L72.45 13.16L72.45 13.16Q71.60 13.16 71.11 12.69L71.11 12.69L71.11 12.69Q70.63 12.22 70.63 11.27L70.63 11.27L70.63 6.62L69.23 6.62L69.23 6.02L70.63 6.02L70.63 4.27L71.33 4.07L71.33 6.02L73.96 6.02L73.96 6.62L71.33 6.62L71.33 11.17L71.33 11.17Q71.33 11.83 71.64 12.17L71.64 12.17L71.64 12.17Q71.96 12.52 72.56 12.52L72.56 12.52L72.56 12.52Q73.26 12.52 73.78 12.00L73.78 12.00ZM78.39 5.88L78.39 5.88Q78.95 5.88 79.27 6.12L79.27 6.12L79.09 6.78L79.09 6.78Q78.76 6.52 78.19 6.52L78.19 6.52L78.19 6.52Q77.66 6.52 77.19 6.85L77.19 6.85L77.19 6.85Q76.72 7.18 76.43 7.78L76.43 7.78L76.43 7.78Q76.15 8.37 76.15 9.10L76.15 9.10L76.15 13.02L75.45 13.02L75.45 6.02L76.03 6.02L76.12 7.45L76.12 7.45Q76.41 6.71 76.99 6.29L76.99 6.29L76.99 6.29Q77.57 5.88 78.39 5.88L78.39 5.88ZM83.29 5.88L83.29 5.88Q84.84 5.88 85.73 6.85L85.73 6.85L85.73 6.85Q86.62 7.83 86.62 9.52L86.62 9.52L86.62 9.52Q86.62 11.21 85.73 12.19L85.73 12.19L85.73 12.19Q84.84 13.16 83.29 13.16L83.29 13.16L83.29 13.16Q81.73 13.16 80.84 12.19L80.84 12.19L80.84 12.19Q79.95 11.21 79.95 9.52L79.95 9.52L79.95 9.52Q79.95 7.83 80.84 6.85L80.84 6.85L80.84 6.85Q81.73 5.88 83.29 5.88L83.29 5.88ZM83.29 6.48L83.29 6.48Q82.05 6.48 81.35 7.29L81.35 7.29L81.35 7.29Q80.65 8.11 80.65 9.52L80.65 9.52L80.65 9.52Q80.65 10.93 81.35 11.75L81.35 11.75L81.35 11.75Q82.05 12.56 83.29 12.56L83.29 12.56L83.29 12.56Q84.52 12.56 85.22 11.75L85.22 11.75L85.22 11.75Q85.92 10.93 85.92 9.52L85.92 9.52L85.92 9.52Q85.92 8.11 85.22 7.29L85.22 7.29L85.22 7.29Q84.52 6.48 83.29 6.48L83.29 6.48ZM90.94 13.16L90.94 13.16Q89.88 13.16 89.10 12.74L89.10 12.74L89.10 12.74Q88.31 12.32 88.02 11.52L88.02 11.52L88.59 11.14L88.59 11.14Q88.80 11.84 89.45 12.19L89.45 12.19L89.45 12.19Q90.09 12.54 91.03 12.54L91.03 12.54L91.03 12.54Q91.98 12.54 92.52 12.18L92.52 12.18L92.52 12.18Q93.06 11.82 93.06 11.21L93.06 11.21L93.06 11.21Q93.06 10.70 92.60 10.39L92.60 10.39L92.60 10.39Q92.13 10.08 90.97 9.87L90.97 9.87L90.97 9.87Q89.50 9.60 88.90 9.16L88.90 9.16L88.90 9.16Q88.30 8.71 88.30 7.88L88.30 7.88L88.30 7.88Q88.30 7.34 88.63 6.87L88.63 6.87L88.63 6.87Q88.97 6.41 89.59 6.15L89.59 6.15L89.59 6.15Q90.20 5.88 90.99 5.88L90.99 5.88L90.99 5.88Q92.09 5.88 92.76 6.30L92.76 6.30L92.76 6.30Q93.42 6.72 93.67 7.59L93.67 7.59L93.07 7.94L93.07 7.94Q92.68 6.50 90.99 6.50L90.99 6.50L90.99 6.50Q90.43 6.50 89.97 6.68L89.97 6.68L89.97 6.68Q89.52 6.86 89.26 7.16L89.26 7.16L89.26 7.16Q89.00 7.46 89.00 7.81L89.00 7.81L89.00 7.81Q89.00 8.39 89.47 8.71L89.47 8.71L89.47 8.71Q89.95 9.03 91.15 9.24L91.15 9.24L91.15 9.24Q92.58 9.48 93.17 9.93L93.17 9.93L93.17 9.93Q93.76 10.37 93.76 11.19L93.76 11.19L93.76 11.19Q93.76 12.08 93.00 12.62L93.00 12.62L93.00 12.62Q92.23 13.16 90.94 13.16L90.94 13.16ZM101.04 6.02L97.66 14.31L97.66 14.31Q97.27 15.26 96.80 15.64L96.80 15.64L96.80 15.64Q96.32 16.03 95.59 16.03L95.59 16.03L95.59 16.03Q94.72 16.03 94.26 15.51L94.26 15.51L94.53 14.91L94.53 14.91Q94.86 15.41 95.59 15.41L95.59 15.41L95.59 15.41Q96.08 15.41 96.43 15.14L96.43 15.14L96.43 15.14Q96.77 14.87 97.06 14.14L97.06 14.14L97.51 13.02L96.78 11.28L94.56 6.02L95.35 6.02L97.50 11.33L97.85 12.26L98.22 11.26L100.28 6.02L101.04 6.02ZM108.00 12.56L108.00 12.56Q108.35 12.56 108.54 12.46L108.54 12.46L108.50 13.02L108.50 13.02Q108.25 13.16 107.81 13.16L107.81 13.16L107.81 13.16Q107.32 13.16 107.02 12.89L107.02 12.89L107.02 12.89Q106.71 12.63 106.67 11.97L106.67 11.97L106.67 11.97Q106.34 12.53 105.63 12.84L105.63 12.84L105.63 12.84Q104.92 13.16 104.13 13.16L104.13 13.16L104.13 13.16Q103.10 13.16 102.47 12.70L102.47 12.70L102.47 12.70Q101.85 12.24 101.85 11.38L101.85 11.38L101.85 11.38Q101.85 9.76 104.51 9.28L104.51 9.28L106.65 8.90L106.65 8.29L106.65 8.29Q106.65 7.45 106.16 6.97L106.16 6.97L106.16 6.97Q105.66 6.50 104.75 6.50L104.75 6.50L104.75 6.50Q103.08 6.50 102.51 7.98L102.51 7.98L101.98 7.59L101.98 7.59Q102.28 6.76 103.00 6.32L103.00 6.32L103.00 6.32Q103.71 5.88 104.75 5.88L104.75 5.88L104.75 5.88Q105.97 5.88 106.66 6.47L106.66 6.47L106.66 6.47Q107.35 7.07 107.35 8.20L107.35 8.20L107.35 11.82L107.35 11.82Q107.35 12.56 108.00 12.56L108.00 12.56ZM104.20 12.54L104.20 12.54Q104.79 12.54 105.35 12.34L105.35 12.34L105.35 12.34Q105.91 12.14 106.28 11.74L106.28 11.74L106.28 11.74Q106.65 11.34 106.65 10.78L106.65 10.78L106.65 9.48L104.73 9.83L104.73 9.83Q103.60 10.04 103.08 10.42L103.08 10.42L103.08 10.42Q102.56 10.79 102.56 11.38L102.56 11.38L102.56 11.38Q102.56 11.94 103.00 12.24L103.00 12.24L103.00 12.24Q103.43 12.54 104.20 12.54L104.20 12.54ZM113.25 5.88L113.25 5.88Q114.45 5.88 115.19 6.55L115.19 6.55L115.19 6.55Q115.92 7.22 115.92 8.48L115.92 8.48L115.92 13.02L115.22 13.02L115.22 8.71L115.22 8.71Q115.22 7.59 114.67 7.04L114.67 7.04L114.67 7.04Q114.13 6.50 113.18 6.50L113.18 6.50L113.18 6.50Q112.50 6.50 111.93 6.80L111.93 6.80L111.93 6.80Q111.36 7.11 111.01 7.70L111.01 7.70L111.01 7.70Q110.67 8.29 110.67 9.07L110.67 9.07L110.67 13.02L109.97 13.02L109.97 6.02L110.60 6.02L110.63 7.43L110.63 7.43Q110.96 6.68 111.66 6.28L111.66 6.28L111.66 6.28Q112.35 5.88 113.25 5.88L113.25 5.88Z"></path></g><defs data-v-423bf9ae=""><linearGradient data-v-423bf9ae="" gradientTransform="rotate(25)" id="d8f2ad94-7e80-4071-9a5f-695f2ed3c26f" x1="0%" y1="0%" x2="100%" y2="0%"><stop data-v-423bf9ae="" offset="0%" style="stop-color: rgb(148, 80, 105); stop-opacity: 1;"></stop><stop data-v-423bf9ae="" offset="100%" style="stop-color: rgb(134, 200, 102); stop-opacity: 1;"></stop></linearGradient></defs><g data-v-423bf9ae="" id="2e4afb7b-7149-4f33-b006-be85bc07531a" transform="matrix(1.1538461538461537,0,0,1.1538461538461537,0.15283793669480872,-28.84615384615384)" stroke="none" fill="url(#d8f2ad94-7e80-4071-9a5f-695f2ed3c26f)"><path d="M74.313 25l-28.094 78h8.469l28.094-78h-8.469zM38 36.25l-2.188 1.406-34 22-1.813 1.156v4.25l1.688 1.219 34 24L38 91.875v-9.781L11.156 63.125 38 45.75v-9.5zm52 0v9.5l26.844 17.375L90 82.094v9.781l2.313-1.594 34-24 1.688-1.219v-4.25l-1.813-1.156-34-22L90 36.25z"></path></g><!----></svg>