<?xml version="1.0" encoding="UTF-8"?>
<!-- Generator: visioncortex VTracer 0.6.3 -->
<svg version="1.1" xmlns="http://www.w3.org/2000/svg" width="1280" height="800">
<path d="M0 0 C422.4 0 844.8 0 1280 0 C1280 264 1280 528 1280 800 C857.6 800 435.2 800 0 800 C0 536 0 272 0 0 Z " fill="#F9FCFE" transform="translate(0,0)"/>
<path d="M0 0 C4.79 4 9.31 8.17 13.71 12.6 C14.35 13.23 14.99 13.87 15.64 14.53 C17.76 16.65 19.87 18.77 21.99 20.89 C23.51 22.42 25.04 23.94 26.56 25.47 C29.84 28.75 33.11 32.03 36.39 35.31 C41.57 40.5 46.75 45.69 51.93 50.88 C63.87 62.83 75.81 74.79 87.74 86.75 C98.68 97.71 109.62 108.66 120.56 119.62 C125.71 124.77 130.86 129.93 136 135.09 C139.21 138.3 142.42 141.51 145.62 144.72 C147.11 146.2 148.59 147.69 150.07 149.18 C152.1 151.21 154.13 153.24 156.16 155.28 C156.74 155.86 157.32 156.44 157.92 157.04 C161.57 160.69 165.36 164.12 169.27 167.49 C171.91 169.79 174.32 172.29 176.75 174.81 C178.57 176.59 180.42 178.22 182.36 179.86 C188.36 185.1 193.92 190.78 199.54 196.42 C200.81 197.69 202.07 198.95 203.34 200.21 C206.8 203.67 210.26 207.14 213.71 210.6 C217.45 214.34 221.19 218.07 224.92 221.81 C231.39 228.28 237.86 234.75 244.33 241.22 C253.68 250.58 263.03 259.94 272.39 269.29 C287.57 284.47 302.74 299.66 317.91 314.84 C332.65 329.58 347.39 344.33 362.13 359.07 C363.04 359.98 363.95 360.89 364.88 361.83 C369.44 366.39 374 370.95 378.56 375.51 C416.38 413.34 454.19 451.17 492 489 C491 491 491 491 488 493 C485.41 493.2 482.92 493.28 480.33 493.27 C479.54 493.27 478.74 493.27 477.93 493.28 C475.25 493.29 472.57 493.29 469.89 493.29 C467.96 493.29 466.03 493.3 464.09 493.31 C458.77 493.33 453.44 493.33 448.12 493.33 C442.38 493.34 436.65 493.36 430.91 493.37 C417.05 493.41 403.19 493.42 389.32 493.44 C382.8 493.44 376.28 493.45 369.75 493.46 C348.08 493.49 326.4 493.52 304.72 493.53 C303.32 493.53 301.91 493.53 300.51 493.53 C299.47 493.53 299.47 493.53 298.4 493.53 C294.88 493.53 291.36 493.53 287.83 493.54 C287.14 493.54 286.44 493.54 285.72 493.54 C263.04 493.55 240.37 493.59 217.7 493.64 C193.74 493.7 169.77 493.74 145.81 493.74 C132.74 493.74 119.68 493.76 106.61 493.8 C95.49 493.84 84.36 493.85 73.24 493.83 C67.56 493.83 61.88 493.83 56.2 493.86 C51.01 493.89 45.81 493.89 40.61 493.86 C38.73 493.86 36.85 493.87 34.97 493.89 C19.16 494.05 19.16 494.05 13.97 489.58 C12.94 488.42 11.94 487.23 11 486 C9.89 484.95 9.89 484.95 8.76 483.88 C8.18 483.29 7.6 482.71 7.01 482.1 C6.33 481.43 5.66 480.75 4.96 480.05 C4.26 479.34 3.56 478.64 2.84 477.91 C2.1 477.16 1.35 476.41 0.58 475.63 C-2.58 472.46 -5.73 469.28 -8.88 466.1 C-11.2 463.76 -13.52 461.43 -15.84 459.09 C-16.54 458.39 -17.24 457.68 -17.96 456.95 C-18.64 456.27 -19.31 455.59 -20.01 454.9 C-20.59 454.31 -21.17 453.73 -21.76 453.12 C-23.7 451.29 -25.67 449.55 -27.69 447.81 C-31.66 444.34 -35.42 440.71 -39.13 436.98 C-39.81 436.31 -40.48 435.64 -41.17 434.95 C-43.39 432.72 -45.61 430.49 -47.84 428.26 C-49.44 426.66 -51.04 425.05 -52.65 423.45 C-56.09 420 -59.53 416.55 -62.97 413.1 C-68.42 407.64 -73.87 402.19 -79.31 396.74 C-86.95 389.09 -94.59 381.44 -102.23 373.79 C-102.96 373.06 -102.96 373.06 -103.7 372.32 C-107.62 368.39 -111.55 364.46 -115.47 360.52 C-118.91 357.09 -122.34 353.65 -125.77 350.21 C-126.49 349.49 -126.49 349.49 -127.23 348.75 C-135.3 340.66 -143.38 332.58 -151.45 324.5 C-156.86 319.08 -162.27 313.66 -167.68 308.24 C-171.05 304.86 -174.42 301.49 -177.79 298.11 C-179.35 296.55 -180.91 294.99 -182.46 293.43 C-184.6 291.29 -186.73 289.16 -188.87 287.02 C-189.78 286.1 -189.78 286.1 -190.71 285.16 C-194.44 281.45 -198.29 277.93 -202.28 274.49 C-204.27 272.76 -206.17 270.95 -208.03 269.08 C-209.05 268.06 -209.05 268.06 -210.09 267.02 C-211.14 265.96 -211.14 265.96 -212.22 264.88 C-212.96 264.13 -213.71 263.39 -214.47 262.62 C-216.82 260.27 -219.16 257.92 -221.5 255.56 C-223.1 253.96 -224.7 252.35 -226.3 250.74 C-230.21 246.83 -234.1 242.92 -238 239 C-236.51 235.54 -234.55 233.31 -231.89 230.66 C-230.62 229.39 -230.62 229.39 -229.32 228.09 C-228.4 227.19 -227.48 226.28 -226.54 225.34 C-225.59 224.4 -224.64 223.45 -223.68 222.5 C-221.18 220 -218.67 217.51 -216.16 215.03 C-213.62 212.5 -211.08 209.97 -208.54 207.44 C-204.06 202.99 -199.58 198.53 -195.1 194.09 C-193.66 192.66 -192.25 191.2 -190.85 189.73 C-189 188 -189 188 -187 188 C-186.67 187.01 -186.34 186.02 -186 185 C-184.52 183.54 -184.52 183.54 -182.59 181.95 C-177.33 177.49 -172.49 172.64 -167.62 167.75 C-166.64 166.77 -165.66 165.79 -164.68 164.81 C-162.64 162.77 -160.59 160.73 -158.55 158.69 C-155.96 156.09 -153.36 153.49 -150.76 150.9 C-148.74 148.88 -146.72 146.86 -144.7 144.83 C-143.28 143.42 -141.87 142 -140.45 140.59 C-139.57 139.71 -138.7 138.83 -137.8 137.93 C-137.04 137.17 -136.28 136.41 -135.5 135.62 C-133.51 133.54 -131.62 131.42 -129.74 129.24 C-125.8 124.71 -121.6 120.46 -117.35 116.22 C-116.51 115.38 -115.67 114.54 -114.81 113.68 C-112.06 110.93 -109.32 108.18 -106.57 105.43 C-104.64 103.51 -102.72 101.59 -100.8 99.67 C-96.78 95.65 -92.76 91.63 -88.74 87.61 C-84.11 82.98 -79.48 78.35 -74.85 73.72 C-70.86 69.73 -66.87 65.73 -62.87 61.74 C-60.5 59.36 -58.12 56.99 -55.74 54.61 C-53.09 51.95 -50.44 49.3 -47.78 46.65 C-47.01 45.88 -46.24 45.1 -45.44 44.3 C-41.35 40.23 -37.19 36.33 -32.81 32.58 C-29.54 29.72 -26.5 26.62 -23.44 23.54 C-22.76 22.86 -22.08 22.18 -21.39 21.48 C-19.26 19.34 -17.13 17.2 -15 15.06 C-13.54 13.6 -12.09 12.14 -10.63 10.68 C-7.08 7.12 -3.54 3.56 0 0 Z " fill="#2B3240" transform="translate(322,154)"/>
<path d="M0 0 C2.9 1.31 4.97 2.72 7.21 4.98 C7.79 5.56 8.37 6.14 8.97 6.75 C9.58 7.37 10.19 7.99 10.81 8.62 C11.44 9.26 12.07 9.9 12.72 10.55 C15.78 13.66 18.76 16.79 21.56 20.12 C24.36 23.43 27.47 26.31 30.68 29.21 C38.1 35.99 45.19 43.08 52.28 50.2 C54.58 52.52 56.88 54.82 59.18 57.13 C64.06 62.02 68.94 66.92 73.81 71.81 C79.49 77.51 85.16 83.21 90.84 88.9 C93.1 91.16 95.35 93.42 97.6 95.69 C98.99 97.09 100.39 98.48 101.78 99.88 C102.4 100.5 103.01 101.12 103.64 101.76 C107.33 105.44 111.15 108.91 115.09 112.32 C117.88 114.77 120.5 117.37 123.11 120.01 C123.66 120.56 124.21 121.12 124.78 121.69 C125.97 122.88 127.16 124.07 128.34 125.27 C130.22 127.16 132.11 129.05 134 130.95 C138.68 135.64 143.35 140.34 148.03 145.04 C151.99 149.02 155.96 153 159.93 156.98 C161.77 158.83 163.61 160.69 165.46 162.54 C170.57 167.68 175.66 172.78 181.23 177.44 C183.59 179.52 185.78 181.76 188 184 C189.61 185.6 191.21 187.19 192.82 188.79 C197.41 193.35 202 197.91 206.59 202.48 C209.35 205.24 212.12 207.99 214.89 210.74 C217.59 213.41 220.28 216.09 222.96 218.77 C223.98 219.79 225 220.8 226.03 221.81 C227.46 223.23 228.88 224.66 230.31 226.08 C231.12 226.89 231.93 227.7 232.77 228.53 C235.23 231.26 237.28 233.74 239 237 C238.24 241.71 234.77 244.65 231.48 247.87 C230.92 248.44 230.36 249 229.78 249.58 C227.92 251.45 226.05 253.3 224.18 255.15 C222.88 256.45 221.58 257.75 220.28 259.05 C217.55 261.77 214.82 264.49 212.08 267.2 C208.59 270.66 205.11 274.13 201.63 277.61 C198.3 280.94 194.96 284.26 191.62 287.59 C190.99 288.21 190.36 288.84 189.71 289.49 C183.89 295.29 178.09 301.05 171.83 306.39 C168.23 309.55 164.89 312.99 161.52 316.38 C160.74 317.16 159.97 317.94 159.17 318.74 C156.71 321.2 154.26 323.66 151.81 326.12 C150.16 327.79 148.5 329.45 146.85 331.11 C143.81 334.15 140.78 337.19 137.75 340.24 C134.83 343.16 131.92 346.08 129 349 C127.47 350.54 125.94 352.08 124.42 353.62 C122.67 355.37 120.93 357.12 119.19 358.88 C118.32 359.75 117.46 360.62 116.57 361.52 C115.29 362.81 115.29 362.81 113.98 364.12 C112.83 365.27 112.83 365.27 111.66 366.45 C109.63 368.4 107.58 370.23 105.45 372.06 C100.49 376.38 95.85 381.01 91.2 385.67 C90.25 386.62 89.29 387.57 88.34 388.53 C85.77 391.09 83.2 393.66 80.63 396.23 C77.94 398.93 75.25 401.62 72.55 404.31 C68.04 408.83 63.52 413.34 59.01 417.86 C53.79 423.09 48.57 428.31 43.34 433.53 C38.85 438.02 34.36 442.51 29.86 447 C27.19 449.68 24.51 452.36 21.83 455.04 C19.31 457.55 16.8 460.06 14.29 462.58 C12.92 463.95 11.56 465.31 10.19 466.67 C9.39 467.48 8.58 468.29 7.75 469.12 C7.04 469.83 6.34 470.53 5.62 471.26 C3.92 472.92 3.92 472.92 3 475 C2.34 475 1.68 475 1 475 C1 474.34 1 473.68 1 473 C0.45 472.77 -0.11 472.54 -0.68 472.3 C-3.65 470.63 -5.71 468.54 -8.12 466.13 C-8.61 465.63 -9.11 465.14 -9.62 464.63 C-11.26 462.99 -12.89 461.35 -14.52 459.71 C-15.66 458.57 -16.81 457.42 -17.95 456.28 C-20.35 453.88 -22.74 451.48 -25.13 449.07 C-28.18 446.01 -31.24 442.95 -34.29 439.89 C-36.66 437.53 -39.02 435.16 -41.38 432.79 C-42.5 431.67 -43.63 430.54 -44.75 429.41 C-46.34 427.83 -47.92 426.24 -49.5 424.65 C-50.39 423.75 -51.29 422.85 -52.21 421.92 C-54.34 419.73 -56.36 417.46 -58.35 415.14 C-62.01 410.93 -65.88 406.98 -69.83 403.04 C-70.58 402.29 -71.33 401.54 -72.1 400.77 C-74.55 398.31 -77.01 395.86 -79.46 393.4 C-81.18 391.68 -82.9 389.96 -84.62 388.24 C-88.22 384.64 -91.82 381.05 -95.41 377.46 C-100.01 372.86 -104.6 368.27 -109.2 363.67 C-112.74 360.12 -116.29 356.57 -119.84 353.02 C-121.54 351.33 -123.23 349.64 -124.92 347.94 C-127.29 345.57 -129.67 343.2 -132.04 340.83 C-133.08 339.79 -133.08 339.79 -134.13 338.73 C-137.99 334.89 -141.95 331.26 -146.07 327.7 C-149.15 324.98 -152.04 322.08 -154.93 319.17 C-155.57 318.52 -156.22 317.88 -156.88 317.22 C-158.26 315.83 -159.63 314.45 -161.01 313.07 C-163.19 310.87 -165.38 308.67 -167.57 306.48 C-173 301.03 -178.43 295.58 -183.86 290.13 C-188.46 285.51 -193.05 280.9 -197.66 276.29 C-199.8 274.14 -201.94 271.98 -204.08 269.83 C-205.41 268.5 -206.74 267.17 -208.07 265.83 C-208.65 265.24 -209.24 264.65 -209.84 264.05 C-213.5 260.39 -217.29 256.93 -221.21 253.56 C-223.7 251.39 -226.04 249.09 -228.38 246.75 C-229.21 245.92 -230.04 245.09 -230.9 244.23 C-233 242 -233 242 -235 239 C-234.58 230.63 -221.22 221.27 -215.39 215.87 C-205.62 206.73 -196.16 197.3 -186.71 187.84 C-184.21 185.34 -181.71 182.84 -179.21 180.34 C-174.33 175.47 -169.46 170.6 -164.6 165.73 C-160.64 161.77 -156.69 157.82 -152.73 153.86 C-152.16 153.3 -151.6 152.73 -151.01 152.15 C-149.86 151 -148.71 149.85 -147.56 148.69 C-136.82 137.96 -126.09 127.23 -115.36 116.49 C-106.15 107.28 -96.94 98.07 -87.73 88.86 C-77 78.14 -66.28 67.41 -55.55 56.69 C-54.41 55.55 -53.27 54.41 -52.13 53.26 C-51.57 52.7 -51.01 52.14 -50.43 51.56 C-46.47 47.6 -42.51 43.65 -38.55 39.69 C-33.74 34.88 -28.93 30.06 -24.12 25.25 C-21.66 22.79 -19.21 20.34 -16.75 17.89 C-14.1 15.23 -11.44 12.57 -8.79 9.92 C-8.01 9.13 -7.22 8.35 -6.42 7.55 C-5.71 6.84 -5 6.13 -4.28 5.4 C-3.66 4.79 -3.05 4.18 -2.42 3.54 C-0.9 2.04 -0.9 2.04 0 0 Z " fill="#75C0D2" transform="translate(919,154)"/>
</svg>
