<?xml version="1.0" encoding="UTF-8"?>
<!DOCTYPE svg PUBLIC "-//W3C//DTD SVG 1.1//EN" "http://www.w3.org/Graphics/SVG/1.1/DTD/svg11.dtd">
<svg xmlns="http://www.w3.org/2000/svg" version="1.1" width="637px" height="637px" style="shape-rendering:geometricPrecision; text-rendering:geometricPrecision; image-rendering:optimizeQuality; fill-rule:evenodd; clip-rule:evenodd" xmlns:xlink="http://www.w3.org/1999/xlink">
<g><path style="opacity:1" fill="#e3f2f9" d="M 288.5,-0.5 C 308.167,-0.5 327.833,-0.5 347.5,-0.5C 377.709,2.61577 407.042,9.78244 435.5,21C 443.538,24.3521 451.204,28.1854 458.5,32.5C 371.64,-7.0658 283.64,-9.73247 194.5,24.5C 199.811,21.5181 205.478,19.0181 211.5,17C 223.781,13.1794 236.115,9.51274 248.5,6C 261.92,3.48496 275.253,1.3183 288.5,-0.5 Z"/></g>
<g><path style="opacity:1" fill="#36ade1" d="M 458.5,32.5 C 459.492,32.3284 460.158,32.6618 460.5,33.5C 461.514,34.6737 462.847,35.3404 464.5,35.5C 465.492,35.3284 466.158,35.6618 466.5,36.5C 469.678,39.2583 473.345,41.2583 477.5,42.5C 489.998,50.5828 502.331,58.9162 514.5,67.5C 515.891,69.8903 517.891,71.5569 520.5,72.5C 521.585,74.5869 523.251,75.9202 525.5,76.5C 530.268,81.3895 535.268,86.0562 540.5,90.5C 541.833,92.1667 543.167,93.8333 544.5,95.5C 475.875,96.4933 407.208,96.8266 338.5,96.5C 353.301,82.6731 355.135,67.3398 344,50.5C 330.05,37.5209 315.217,36.3543 299.5,47C 284.389,64.0804 285.056,80.5804 301.5,96.5C 231.929,96.8314 162.429,96.4981 93,95.5C 91.6667,97.1667 90.3333,98.8333 89,100.5C 88.6174,99.944 88.1174,99.6107 87.5,99.5C 90.5,95.8333 93.8333,92.5 97.5,89.5C 101.5,86.1667 105.167,82.5 108.5,78.5C 123.613,66.3851 139.279,55.0518 155.5,44.5C 157.848,44.4077 159.514,43.4077 160.5,41.5C 162.674,41.2503 164.341,40.2503 165.5,38.5C 167.819,38.0075 169.819,37.0075 171.5,35.5C 173.819,35.0075 175.819,34.0075 177.5,32.5C 179.153,32.3404 180.486,31.6737 181.5,30.5C 185.535,29.6492 189.202,27.9826 192.5,25.5C 192.842,24.6618 193.508,24.3284 194.5,24.5C 283.64,-9.73247 371.64,-7.0658 458.5,32.5 Z"/></g>
<g><path style="opacity:1" fill="#cde7f5" d="M 192.5,25.5 C 189.202,27.9826 185.535,29.6492 181.5,30.5C 184.751,28.0431 188.418,26.3764 192.5,25.5 Z"/></g>
<g><path style="opacity:1" fill="#e0f0f8" d="M 181.5,30.5 C 180.486,31.6737 179.153,32.3404 177.5,32.5C 178.287,30.8958 179.62,30.2291 181.5,30.5 Z"/></g>
<g><path style="opacity:1" fill="#e9f5fa" d="M 177.5,32.5 C 175.819,34.0075 173.819,35.0075 171.5,35.5C 172.911,33.461 174.911,32.461 177.5,32.5 Z"/></g>
<g><path style="opacity:1" fill="#e6f3f9" d="M 460.5,33.5 C 462.38,33.2291 463.713,33.8958 464.5,35.5C 462.847,35.3404 461.514,34.6737 460.5,33.5 Z"/></g>
<g><path style="opacity:1" fill="#eef7fb" d="M 171.5,35.5 C 169.819,37.0075 167.819,38.0075 165.5,38.5C 166.911,36.461 168.911,35.461 171.5,35.5 Z"/></g>
<g><path style="opacity:1" fill="#e5f3f9" d="M 165.5,38.5 C 164.341,40.2503 162.674,41.2503 160.5,41.5C 161.659,39.7497 163.326,38.7497 165.5,38.5 Z"/></g>
<g><path style="opacity:1" fill="#dbeef7" d="M 466.5,36.5 C 470.655,37.7417 474.322,39.7417 477.5,42.5C 473.345,41.2583 469.678,39.2583 466.5,36.5 Z"/></g>
<g><path style="opacity:1" fill="#f9fcfe" d="M 338.5,96.5 C 334.874,98.8199 330.874,100.153 326.5,100.5C 326.5,113.5 326.5,126.5 326.5,139.5C 363.502,139.333 400.502,139.5 437.5,140C 457.704,143.872 470.537,155.705 476,175.5C 476.5,186.495 476.667,197.495 476.5,208.5C 479.5,208.5 482.5,208.5 485.5,208.5C 496.144,210.308 503.311,216.308 507,226.5C 507.667,243.167 507.667,259.833 507,276.5C 502.197,291.004 492.03,297.671 476.5,296.5C 476.5,305.5 476.5,314.5 476.5,323.5C 475.199,337.765 468.866,349.098 457.5,357.5C 452.232,360.537 446.565,362.703 440.5,364C 390.5,364.333 340.5,364.667 290.5,365C 265.328,381.419 240.328,398.085 215.5,415C 211.811,415.506 209.144,414.006 207.5,410.5C 207.5,395.167 207.5,379.833 207.5,364.5C 205.5,364.5 203.5,364.5 201.5,364.5C 194.668,363.541 188.334,361.208 182.5,357.5C 170.731,348.92 164.398,337.253 163.5,322.5C 163.5,313.833 163.5,305.167 163.5,296.5C 147.995,297.681 137.829,291.014 133,276.5C 132.333,259.833 132.333,243.167 133,226.5C 136.59,216.74 143.424,210.74 153.5,208.5C 156.833,208.5 160.167,208.5 163.5,208.5C 163.333,197.495 163.5,186.495 164,175.5C 169.055,156.383 181.222,144.55 200.5,140C 238.165,139.5 275.832,139.333 313.5,139.5C 313.667,126.829 313.5,114.162 313,101.5C 308.991,100.246 305.158,98.5789 301.5,96.5C 285.056,80.5804 284.389,64.0804 299.5,47C 315.217,36.3543 330.05,37.5209 344,50.5C 355.135,67.3398 353.301,82.6731 338.5,96.5 Z"/></g>
<g><path style="opacity:1" fill="#b8dbf0" d="M 160.5,41.5 C 159.514,43.4077 157.848,44.4077 155.5,44.5C 156.486,42.5923 158.152,41.5923 160.5,41.5 Z"/></g>
<g><path style="opacity:1" fill="#3aaee1" d="M 316.5,51.5 C 336.544,53.591 342.711,63.9243 335,82.5C 324.969,91.7719 314.969,91.7719 305,82.5C 297.648,67.8881 301.482,57.5548 316.5,51.5 Z"/></g>
<g><path style="opacity:1" fill="#e8f4fa" d="M 477.5,42.5 C 483.921,44.8769 489.921,48.0436 495.5,52C 502.022,57.0308 508.356,62.1975 514.5,67.5C 502.331,58.9162 489.998,50.5828 477.5,42.5 Z"/></g>
<g><path style="opacity:1" fill="#e1f0f8" d="M 155.5,44.5 C 139.279,55.0518 123.613,66.3851 108.5,78.5C 121.172,66.0005 135.172,55.1672 150.5,46C 152.025,44.9914 153.692,44.4914 155.5,44.5 Z"/></g>
<g><path style="opacity:1" fill="#e7f3fa" d="M 514.5,67.5 C 517.135,68.4735 519.135,70.1402 520.5,72.5C 517.891,71.5569 515.891,69.8903 514.5,67.5 Z"/></g>
<g><path style="opacity:1" fill="#dceef7" d="M 520.5,72.5 C 522.749,73.0798 524.415,74.4131 525.5,76.5C 523.251,75.9202 521.585,74.5869 520.5,72.5 Z"/></g>
<g><path style="opacity:1" fill="#edf6fb" d="M 525.5,76.5 C 528.603,78.4233 531.603,80.59 534.5,83C 537.118,85.1057 539.118,87.6057 540.5,90.5C 535.268,86.0562 530.268,81.3895 525.5,76.5 Z"/></g>
<g><path style="opacity:1" fill="#bfe0f2" d="M 108.5,78.5 C 105.167,82.5 101.5,86.1667 97.5,89.5C 97.5,89.1667 97.5,88.8333 97.5,88.5C 100.563,84.4342 104.229,81.1009 108.5,78.5 Z"/></g>
<g><path style="opacity:1" fill="#eff7fc" d="M 540.5,90.5 C 545.833,93.8333 550.167,98.1667 553.5,103.5C 550.5,100.833 547.5,98.1667 544.5,95.5C 543.167,93.8333 541.833,92.1667 540.5,90.5 Z"/></g>
<g><path style="opacity:1" fill="#eef7fb" d="M 97.5,88.5 C 97.5,88.8333 97.5,89.1667 97.5,89.5C 93.8333,92.5 90.5,95.8333 87.5,99.5C 86.8333,99.8333 86.1667,100.167 85.5,100.5C 88.5,95.5 92.5,91.5 97.5,88.5 Z"/></g>
<g><path style="opacity:1" fill="#33aadf" d="M 301.5,96.5 C 305.158,98.5789 308.991,100.246 313,101.5C 313.5,114.162 313.667,126.829 313.5,139.5C 275.832,139.333 238.165,139.5 200.5,140C 181.222,144.55 169.055,156.383 164,175.5C 163.5,186.495 163.333,197.495 163.5,208.5C 160.167,208.5 156.833,208.5 153.5,208.5C 156.287,207.523 159.287,207.19 162.5,207.5C 162.5,202.5 162.5,197.5 162.5,192.5C 116.761,192.172 71.0946,192.505 25.5,193.5C 28.4487,187.271 31.1154,180.938 33.5,174.5C 36.2583,171.322 38.2583,167.655 39.5,163.5C 41.2503,162.341 42.2503,160.674 42.5,158.5C 50.7431,145.582 59.4097,132.915 68.5,120.5C 74.1601,113.839 79.8268,107.172 85.5,100.5C 86.1667,100.167 86.8333,99.8333 87.5,99.5C 88.1174,99.6107 88.6174,99.944 89,100.5C 90.3333,98.8333 91.6667,97.1667 93,95.5C 162.429,96.4981 231.929,96.8314 301.5,96.5 Z"/></g>
<g><path style="opacity:1" fill="#33aadf" d="M 544.5,95.5 C 547.5,98.1667 550.5,100.833 553.5,103.5C 554.757,106.427 556.757,108.761 559.5,110.5C 562.129,114.463 565.129,118.129 568.5,121.5C 569.419,124.089 571.086,126.089 573.5,127.5C 573.427,129.027 574.094,130.027 575.5,130.5C 579.45,137.113 583.783,143.446 588.5,149.5C 589.338,149.842 589.672,150.508 589.5,151.5C 590.383,154.704 592.05,157.371 594.5,159.5C 594.66,161.153 595.326,162.486 596.5,163.5C 596.75,165.674 597.75,167.341 599.5,168.5C 599.157,170.483 599.824,171.817 601.5,172.5C 602.674,173.514 603.34,174.847 603.5,176.5C 603.259,178.898 603.926,180.898 605.5,182.5C 607.601,185.127 608.934,188.127 609.5,191.5C 608.883,191.389 608.383,191.056 608,190.5C 564.719,192.492 521.219,193.158 477.5,192.5C 477.5,197.5 477.5,202.5 477.5,207.5C 480.385,207.194 483.052,207.527 485.5,208.5C 482.5,208.5 479.5,208.5 476.5,208.5C 476.667,197.495 476.5,186.495 476,175.5C 470.537,155.705 457.704,143.872 437.5,140C 400.502,139.5 363.502,139.333 326.5,139.5C 326.5,126.5 326.5,113.5 326.5,100.5C 330.874,100.153 334.874,98.8199 338.5,96.5C 407.208,96.8266 475.875,96.4933 544.5,95.5 Z"/></g>
<g><path style="opacity:1" fill="#dff0f8" d="M 553.5,103.5 C 556.243,105.239 558.243,107.573 559.5,110.5C 556.757,108.761 554.757,106.427 553.5,103.5 Z"/></g>
<g><path style="opacity:1" fill="#e5f2f9" d="M 85.5,100.5 C 79.8268,107.172 74.1601,113.839 68.5,120.5C 72.6724,112.653 78.3391,105.987 85.5,100.5 Z"/></g>
<g><path style="opacity:1" fill="#e6f3fa" d="M 559.5,110.5 C 563.628,113.29 566.628,116.957 568.5,121.5C 565.129,118.129 562.129,114.463 559.5,110.5 Z"/></g>
<g><path style="opacity:1" fill="#e8f4fa" d="M 568.5,121.5 C 571.107,122.712 572.774,124.712 573.5,127.5C 571.086,126.089 569.419,124.089 568.5,121.5 Z"/></g>
<g><path style="opacity:1" fill="#ecf6fb" d="M 573.5,127.5 C 574.906,127.973 575.573,128.973 575.5,130.5C 574.094,130.027 573.427,129.027 573.5,127.5 Z"/></g>
<g><path style="opacity:1" fill="#edf6fb" d="M 68.5,120.5 C 59.4097,132.915 50.7431,145.582 42.5,158.5C 48.7057,144.069 57.3724,131.402 68.5,120.5 Z"/></g>
<g><path style="opacity:1" fill="#eff7fb" d="M 575.5,130.5 C 581.043,135.89 585.376,142.224 588.5,149.5C 583.783,143.446 579.45,137.113 575.5,130.5 Z"/></g>
<g><path style="opacity:1" fill="#e7f3fa" d="M 589.5,151.5 C 591.95,153.629 593.617,156.296 594.5,159.5C 592.05,157.371 590.383,154.704 589.5,151.5 Z"/></g>
<g><path style="opacity:1" fill="#dff0f8" d="M 42.5,158.5 C 42.2503,160.674 41.2503,162.341 39.5,163.5C 39.7497,161.326 40.7497,159.659 42.5,158.5 Z"/></g>
<g><path style="opacity:1" fill="#eef7fb" d="M 594.5,159.5 C 596.104,160.287 596.771,161.62 596.5,163.5C 595.326,162.486 594.66,161.153 594.5,159.5 Z"/></g>
<g><path style="opacity:1" fill="#e4f2f9" d="M 596.5,163.5 C 598.25,164.659 599.25,166.326 599.5,168.5C 597.75,167.341 596.75,165.674 596.5,163.5 Z"/></g>
<g><path style="opacity:1" fill="#e6f3f9" d="M 39.5,163.5 C 38.2583,167.655 36.2583,171.322 33.5,174.5C 34.7417,170.345 36.7417,166.678 39.5,163.5 Z"/></g>
<g><path style="opacity:1" fill="#31a9de" d="M 463.5,192.5 C 367.833,192.5 272.167,192.5 176.5,192.5C 173.835,173.657 181.168,160.49 198.5,153C 278.833,152.333 359.167,152.333 439.5,153C 458.305,159.421 466.305,172.587 463.5,192.5 Z"/></g>
<g><path style="opacity:1" fill="#b4daf0" d="M 599.5,168.5 C 600.674,169.514 601.34,170.847 601.5,172.5C 599.824,171.817 599.157,170.483 599.5,168.5 Z"/></g>
<g><path style="opacity:1" fill="#a7d4ed" d="M 603.5,176.5 C 604.674,177.514 605.34,178.847 605.5,180.5C 605.5,181.167 605.5,181.833 605.5,182.5C 603.926,180.898 603.259,178.898 603.5,176.5 Z"/></g>
<g><path style="opacity:1" fill="#e8f4fa" d="M 33.5,174.5 C 31.1154,180.938 28.4487,187.271 25.5,193.5C 25.1667,193.5 24.8333,193.5 24.5,193.5C 26.6956,186.776 29.6956,180.443 33.5,174.5 Z"/></g>
<g><path style="opacity:1" fill="#eef7fb" d="M 605.5,180.5 C 608.639,184.224 610.639,188.557 611.5,193.5C 610.833,192.833 610.167,192.167 609.5,191.5C 608.934,188.127 607.601,185.127 605.5,182.5C 605.5,181.833 605.5,181.167 605.5,180.5 Z"/></g>
<g><path style="opacity:1" fill="#2ea5dc" d="M 153.5,208.5 C 143.424,210.74 136.59,216.74 133,226.5C 132.333,243.167 132.333,259.833 133,276.5C 137.829,291.014 147.995,297.681 163.5,296.5C 163.5,305.167 163.5,313.833 163.5,322.5C 162.513,317.695 162.179,312.695 162.5,307.5C 109.169,306.9 55.8354,306.567 2.5,306.5C 1.4838,315.798 1.15046,327.798 1.5,342.5C 0.503485,326.008 0.170152,309.342 0.5,292.5C 3.51143,266.131 8.84477,240.131 16.5,214.5C 18.6013,211.203 19.9347,207.537 20.5,203.5C 22.7943,200.63 24.1277,197.297 24.5,193.5C 24.8333,193.5 25.1667,193.5 25.5,193.5C 71.0946,192.505 116.761,192.172 162.5,192.5C 162.5,197.5 162.5,202.5 162.5,207.5C 159.287,207.19 156.287,207.523 153.5,208.5 Z"/></g>
<g><path style="opacity:1" fill="#2fa5dc" d="M 176.5,192.5 C 272.167,192.5 367.833,192.5 463.5,192.5C 463.5,230.5 463.5,268.5 463.5,306.5C 367.829,306.236 272.162,306.569 176.5,307.5C 176.5,269.167 176.5,230.833 176.5,192.5 Z"/></g>
<g><path style="opacity:1" fill="#2ea5dc" d="M 609.5,191.5 C 610.167,192.167 610.833,192.833 611.5,193.5C 611.402,195.553 612.069,197.22 613.5,198.5C 615.567,206.135 618.234,213.469 621.5,220.5C 629.512,247.573 634.179,275.24 635.5,303.5C 635.829,317.344 635.496,331.01 634.5,344.5C 634.9,326.469 634.566,313.802 633.5,306.5C 581.5,306.5 529.5,306.5 477.5,306.5C 477.822,312.358 477.489,318.025 476.5,323.5C 476.5,314.5 476.5,305.5 476.5,296.5C 492.03,297.671 502.197,291.004 507,276.5C 507.667,259.833 507.667,243.167 507,226.5C 503.311,216.308 496.144,210.308 485.5,208.5C 483.052,207.527 480.385,207.194 477.5,207.5C 477.5,202.5 477.5,197.5 477.5,192.5C 521.219,193.158 564.719,192.492 608,190.5C 608.383,191.056 608.883,191.389 609.5,191.5 Z"/></g>
<g><path style="opacity:1" fill="#f3f9fc" d="M 611.5,193.5 C 613.213,194.635 613.88,196.302 613.5,198.5C 612.069,197.22 611.402,195.553 611.5,193.5 Z"/></g>
<g><path style="opacity:1" fill="#f2f8fc" d="M 24.5,193.5 C 24.1277,197.297 22.7943,200.63 20.5,203.5C 20.7516,199.673 22.0849,196.34 24.5,193.5 Z"/></g>
<g><path style="opacity:1" fill="#eaf5fa" d="M 613.5,198.5 C 617.378,205.314 620.045,212.647 621.5,220.5C 618.234,213.469 615.567,206.135 613.5,198.5 Z"/></g>
<g><path style="opacity:1" fill="#fafdfe" d="M 236.5,202.5 C 256.62,200.158 269.786,208.491 276,227.5C 275.993,253.839 262.826,266.006 236.5,264C 218.162,256.494 210.996,242.994 215,223.5C 219.438,213.56 226.605,206.56 236.5,202.5 Z"/></g>
<g><path style="opacity:1" fill="#fbfdfe" d="M 386.5,202.5 C 404.515,200.254 417.348,207.254 425,223.5C 429.149,244.044 421.315,257.544 401.5,264C 374.5,264.664 362.333,251.497 365,224.5C 368.993,214.007 376.16,206.674 386.5,202.5 Z"/></g>
<g><path style="opacity:1" fill="#f0f8fc" d="M 20.5,203.5 C 19.9347,207.537 18.6013,211.203 16.5,214.5C 17.0249,210.467 18.3582,206.8 20.5,203.5 Z"/></g>
<g><path style="opacity:1" fill="#34a8de" d="M 240.5,214.5 C 250.942,213.803 258.442,218.136 263,227.5C 265.48,240.046 260.646,248.212 248.5,252C 231.999,252.214 224.832,244.047 227,227.5C 229.442,220.888 233.942,216.555 240.5,214.5 Z"/></g>
<g><path style="opacity:1" fill="#34a8de" d="M 390.5,214.5 C 407.666,214.175 415.166,222.508 413,239.5C 407.061,251.26 397.895,254.76 385.5,250C 373.625,238.95 373.625,227.95 385.5,217C 387.315,216.243 388.981,215.41 390.5,214.5 Z"/></g>
<g><path style="opacity:1" fill="#35a7dd" d="M 154.5,220.5 C 157.5,220.5 160.5,220.5 163.5,220.5C 163.5,241.5 163.5,262.5 163.5,283.5C 154.156,285.749 147.989,282.415 145,273.5C 144.333,258.833 144.333,244.167 145,229.5C 147.43,225.566 150.597,222.566 154.5,220.5 Z"/></g>
<g><path style="opacity:1" fill="#35a7dd" d="M 476.5,220.5 C 483.663,219.608 489.497,221.941 494,227.5C 495.136,235.401 495.636,243.401 495.5,251.5C 495.333,258.833 495.167,266.167 495,273.5C 491.83,282.137 485.663,285.47 476.5,283.5C 476.5,262.5 476.5,241.5 476.5,220.5 Z"/></g>
<g><path style="opacity:1" fill="#ebf5fb" d="M 621.5,220.5 C 625.417,230.477 628.584,240.81 631,251.5C 633.094,263.944 634.927,276.277 636.5,288.5C 636.5,293.5 636.5,298.5 636.5,303.5C 636.167,303.5 635.833,303.5 635.5,303.5C 634.179,275.24 629.512,247.573 621.5,220.5 Z"/></g>
<g><path style="opacity:1" fill="#fafcfe" d="M 285.5,277.5 C 287.527,277.338 289.527,277.505 291.5,278C 296.11,283.273 301.777,286.94 308.5,289C 317.213,289.798 325.88,289.464 334.5,288C 340.575,285.23 346.075,281.73 351,277.5C 356.928,278.689 358.595,282.023 356,287.5C 348.752,295.145 339.919,299.979 329.5,302C 315.442,304.233 302.442,301.567 290.5,294C 287.628,291.463 285.128,288.63 283,285.5C 282.388,282.389 283.221,279.723 285.5,277.5 Z"/></g>
<g><path style="opacity:1" fill="#ecf6fb" d="M 16.5,214.5 C 8.84477,240.131 3.51143,266.131 0.5,292.5C 0.5,291.833 0.166667,291.5 -0.5,291.5C -0.5,289.5 -0.5,287.5 -0.5,285.5C 1.49375,272.711 3.66042,260.044 6,247.5C 8.99431,236.218 12.4943,225.218 16.5,214.5 Z"/></g>
<g><path style="opacity:1" fill="#2ba2da" d="M 463.5,306.5 C 463.666,313.841 463.5,321.174 463,328.5C 459.94,339.462 453.107,346.962 442.5,351C 390.892,352.32 339.225,352.987 287.5,353C 265.351,366.991 243.351,381.158 221.5,395.5C 220.833,384.5 220.167,373.5 219.5,362.5C 218.49,358.987 216.49,356.153 213.5,354C 185.179,351.491 172.846,335.991 176.5,307.5C 272.162,306.569 367.829,306.236 463.5,306.5 Z"/></g>
<g><path style="opacity:1" fill="#2aa1da" d="M 634.5,344.5 C 634.048,349.998 633.381,355.331 632.5,360.5C 632.662,358.473 632.495,356.473 632,354.5C 631.517,355.448 631.351,356.448 631.5,357.5C 573.5,357.5 515.5,357.5 457.5,357.5C 468.866,349.098 475.199,337.765 476.5,323.5C 477.489,318.025 477.822,312.358 477.5,306.5C 529.5,306.5 581.5,306.5 633.5,306.5C 634.566,313.802 634.9,326.469 634.5,344.5 Z"/></g>
<g><path style="opacity:1" fill="#2aa1da" d="M 163.5,322.5 C 164.398,337.253 170.731,348.92 182.5,357.5C 122.664,357.168 62.9977,357.501 3.5,358.5C 2.04269,353.402 1.37603,348.069 1.5,342.5C 1.15046,327.798 1.4838,315.798 2.5,306.5C 55.8354,306.567 109.169,306.9 162.5,307.5C 162.179,312.695 162.513,317.695 163.5,322.5 Z"/></g>
<g><path style="opacity:1" fill="#289ed8" d="M 632.5,360.5 C 629.195,388.396 621.862,415.063 610.5,440.5C 610.423,439.25 609.756,438.417 608.5,438C 581.5,437.833 554.5,437.667 527.5,437.5C 490.975,437.951 454.475,437.951 418,437.5C 410.265,437.534 402.765,438.201 395.5,439.5C 396.925,431.298 398.592,423.131 400.5,415C 399.245,409.482 397.912,403.982 396.5,398.5C 395.434,396.436 393.767,395.102 391.5,394.5C 351.815,409.172 312.149,423.839 272.5,438.5C 191.002,437.501 109.335,437.167 27.5,437.5C 28.0671,439.969 28.0671,442.302 27.5,444.5C 14.5863,417.299 6.58633,388.633 3.5,358.5C 62.9977,357.501 122.664,357.168 182.5,357.5C 188.334,361.208 194.668,363.541 201.5,364.5C 202.919,365.451 204.585,365.784 206.5,365.5C 206.171,380.676 206.504,395.676 207.5,410.5C 209.144,414.006 211.811,415.506 215.5,415C 240.328,398.085 265.328,381.419 290.5,365C 340.5,364.667 390.5,364.333 440.5,364C 446.565,362.703 452.232,360.537 457.5,357.5C 515.5,357.5 573.5,357.5 631.5,357.5C 631.351,356.448 631.517,355.448 632,354.5C 632.495,356.473 632.662,358.473 632.5,360.5 Z"/></g>
<g><path style="opacity:1" fill="#79c3e7" d="M 219.5,362.5 C 220.167,373.5 220.833,384.5 221.5,395.5C 221.44,396.043 221.107,396.376 220.5,396.5C 219.501,385.186 219.168,373.853 219.5,362.5 Z"/></g>
<g><path style="opacity:1" fill="#5db6e2" d="M 201.5,364.5 C 203.5,364.5 205.5,364.5 207.5,364.5C 207.5,379.833 207.5,395.167 207.5,410.5C 206.504,395.676 206.171,380.676 206.5,365.5C 204.585,365.784 202.919,365.451 201.5,364.5 Z"/></g>
<g><path style="opacity:1" fill="#fdfefe" d="M 366.5,549.5 C 365.395,556.884 363.229,563.884 360,570.5C 356.577,573.18 352.744,574.013 348.5,573C 333.007,561.668 317.673,550.168 302.5,538.5C 293.681,531.258 284.681,524.258 275.5,517.5C 275.33,516.178 275.663,515.011 276.5,514C 304.631,489.538 332.464,464.704 360,439.5C 360.833,436.333 359.667,435.167 356.5,436C 321.331,458.084 286.331,480.417 251.5,503C 250.207,503.49 248.873,503.657 247.5,503.5C 231.99,498.885 216.656,493.885 201.5,488.5C 195.439,482.385 196.439,477.552 204.5,474C 262.387,448.819 321.054,425.819 380.5,405C 391.396,401.376 395.563,405.21 393,416.5C 384.632,460.964 375.799,505.297 366.5,549.5 Z"/></g>
<g><path style="opacity:1" fill="#32a5dc" d="M 395.5,439.5 C 387.998,476.161 380.331,512.827 372.5,549.5C 370.876,549.36 369.71,550.027 369,551.5C 368.292,550.619 367.458,549.953 366.5,549.5C 375.799,505.297 384.632,460.964 393,416.5C 395.563,405.21 391.396,401.376 380.5,405C 321.054,425.819 262.387,448.819 204.5,474C 196.439,477.552 195.439,482.385 201.5,488.5C 199.097,488.607 197.264,487.607 196,485.5C 195.801,482.278 194.968,479.278 193.5,476.5C 193.692,473.399 194.358,470.399 195.5,467.5C 220.804,457.021 246.471,447.354 272.5,438.5C 312.149,423.839 351.815,409.172 391.5,394.5C 393.767,395.102 395.434,396.436 396.5,398.5C 397.912,403.982 399.245,409.482 400.5,415C 398.592,423.131 396.925,431.298 395.5,439.5 Z"/></g>
<g><path style="opacity:1" fill="#deeff8" d="M 635.5,303.5 C 635.833,303.5 636.167,303.5 636.5,303.5C 636.5,317.833 636.5,332.167 636.5,346.5C 633.826,376.349 626.992,405.349 616,433.5C 611.869,444.419 606.703,454.752 600.5,464.5C 603.851,456.47 607.184,448.47 610.5,440.5C 621.862,415.063 629.195,388.396 632.5,360.5C 633.381,355.331 634.048,349.998 634.5,344.5C 635.496,331.01 635.829,317.344 635.5,303.5 Z"/></g>
<g><path style="opacity:1" fill="#dfeff8" d="M -0.5,292.5 C -0.166667,292.5 0.166667,292.5 0.5,292.5C 0.170152,309.342 0.503485,326.008 1.5,342.5C 1.37603,348.069 2.04269,353.402 3.5,358.5C 6.58633,388.633 14.5863,417.299 27.5,444.5C 31.553,454.274 35.8863,463.941 40.5,473.5C 21.948,442.97 9.94802,410.47 4.5,376C 2.35921,367.492 0.692544,358.992 -0.5,350.5C -0.5,331.167 -0.5,311.833 -0.5,292.5 Z"/></g>
<g><path style="opacity:1" fill="#cbe0ee" d="M 275.5,517.5 C 274.206,519.048 273.539,521.048 273.5,523.5C 271.705,536.961 270.039,550.294 268.5,563.5C 267.21,562.942 266.377,561.942 266,560.5C 265.458,557.708 264.624,555.042 263.5,552.5C 258.929,535.871 253.596,519.537 247.5,503.5C 248.873,503.657 250.207,503.49 251.5,503C 286.331,480.417 321.331,458.084 356.5,436C 359.667,435.167 360.833,436.333 360,439.5C 332.464,464.704 304.631,489.538 276.5,514C 275.663,515.011 275.33,516.178 275.5,517.5 Z"/></g>
<g><path style="opacity:1" fill="#2399d6" d="M 272.5,438.5 C 246.471,447.354 220.804,457.021 195.5,467.5C 194.358,470.399 193.692,473.399 193.5,476.5C 191.147,481.084 190.481,485.917 191.5,491C 206.941,496.221 222.274,501.721 237.5,507.5C 242.432,521.13 247.266,534.797 252,548.5C 256.051,549.228 259.884,550.562 263.5,552.5C 264.624,555.042 265.458,557.708 266,560.5C 266.377,561.942 267.21,562.942 268.5,563.5C 270.772,564.764 273.105,564.598 275.5,563C 284.186,554.351 293.186,546.185 302.5,538.5C 317.673,550.168 333.007,561.668 348.5,573C 352.744,574.013 356.577,573.18 360,570.5C 363.229,563.884 365.395,556.884 366.5,549.5C 367.458,549.953 368.292,550.619 369,551.5C 369.71,550.027 370.876,549.36 372.5,549.5C 380.331,512.827 387.998,476.161 395.5,439.5C 402.765,438.201 410.265,437.534 418,437.5C 454.475,437.951 490.975,437.951 527.5,437.5C 554.5,437.667 581.5,437.833 608.5,438C 609.756,438.417 610.423,439.25 610.5,440.5C 607.184,448.47 603.851,456.47 600.5,464.5C 596.663,470.17 593.33,476.17 590.5,482.5C 582.503,493.825 574.503,505.158 566.5,516.5C 562.464,520.534 558.798,524.868 555.5,529.5C 546.833,537.5 538.5,545.833 530.5,554.5C 527.911,555.419 525.911,557.086 524.5,559.5C 521.568,560.8 519.234,562.8 517.5,565.5C 503.435,575.566 489.101,585.232 474.5,594.5C 472.046,595.227 469.713,596.227 467.5,597.5C 368.167,596.167 268.833,596.167 169.5,597.5C 168.5,597.5 167.5,597.5 166.5,597.5C 165.341,595.75 163.674,594.75 161.5,594.5C 160.508,594.672 159.842,594.338 159.5,593.5C 148.842,586.503 138.175,579.503 127.5,572.5C 126.738,570.738 125.404,569.738 123.5,569.5C 122.089,567.086 120.089,565.419 117.5,564.5C 116.415,562.413 114.749,561.08 112.5,560.5C 111.089,558.086 109.089,556.419 106.5,555.5C 105.811,552.811 104.144,551.144 101.5,550.5C 92.4725,541.14 83.4725,531.807 74.5,522.5C 73.5265,519.865 71.8598,517.865 69.5,516.5C 67.984,513.467 65.984,510.8 63.5,508.5C 56.1334,497.477 48.8,486.477 41.5,475.5C 40.6618,475.158 40.3284,474.492 40.5,473.5C 35.8863,463.941 31.553,454.274 27.5,444.5C 28.0671,442.302 28.0671,439.969 27.5,437.5C 109.335,437.167 191.002,437.501 272.5,438.5 Z"/></g>
<g><path style="opacity:1" fill="#e2f1f9" d="M 600.5,464.5 C 598.197,471.11 594.863,477.11 590.5,482.5C 593.33,476.17 596.663,470.17 600.5,464.5 Z"/></g>
<g><path style="opacity:1" fill="#ecf6fb" d="M 590.5,482.5 C 584.437,495.225 576.437,506.559 566.5,516.5C 574.503,505.158 582.503,493.825 590.5,482.5 Z"/></g>
<g><path style="opacity:1" fill="#e7f4fa" d="M 41.5,475.5 C 48.8,486.477 56.1334,497.477 63.5,508.5C 54.4447,498.745 47.1113,487.745 41.5,475.5 Z"/></g>
<g><path style="opacity:1" fill="#2c9fd9" d="M 193.5,476.5 C 194.968,479.278 195.801,482.278 196,485.5C 197.264,487.607 199.097,488.607 201.5,488.5C 216.656,493.885 231.99,498.885 247.5,503.5C 253.596,519.537 258.929,535.871 263.5,552.5C 259.884,550.562 256.051,549.228 252,548.5C 247.266,534.797 242.432,521.13 237.5,507.5C 222.274,501.721 206.941,496.221 191.5,491C 190.481,485.917 191.147,481.084 193.5,476.5 Z"/></g>
<g><path style="opacity:1" fill="#e6f3f9" d="M 63.5,508.5 C 65.984,510.8 67.984,513.467 69.5,516.5C 66.5512,514.627 64.5512,511.961 63.5,508.5 Z"/></g>
<g><path style="opacity:1" fill="#d2e9f5" d="M 69.5,516.5 C 71.8598,517.865 73.5265,519.865 74.5,522.5C 72.1097,521.109 70.4431,519.109 69.5,516.5 Z"/></g>
<g><path style="opacity:1" fill="#a8c6df" d="M 275.5,517.5 C 284.681,524.258 293.681,531.258 302.5,538.5C 293.186,546.185 284.186,554.351 275.5,563C 273.105,564.598 270.772,564.764 268.5,563.5C 270.039,550.294 271.705,536.961 273.5,523.5C 273.539,521.048 274.206,519.048 275.5,517.5 Z"/></g>
<g><path style="opacity:1" fill="#e9f4fa" d="M 566.5,516.5 C 563.954,521.719 560.287,526.052 555.5,529.5C 558.798,524.868 562.464,520.534 566.5,516.5 Z"/></g>
<g><path style="opacity:1" fill="#e5f3fa" d="M 74.5,522.5 C 83.4725,531.807 92.4725,541.14 101.5,550.5C 90.4545,543.121 81.4545,533.788 74.5,522.5 Z"/></g>
<g><path style="opacity:1" fill="#e5f2f9" d="M 555.5,529.5 C 548.426,538.078 540.76,546.245 532.5,554C 531.906,554.464 531.239,554.631 530.5,554.5C 538.5,545.833 546.833,537.5 555.5,529.5 Z"/></g>
<g><path style="opacity:1" fill="#b8dcf0" d="M 101.5,550.5 C 104.144,551.144 105.811,552.811 106.5,555.5C 104.548,554.215 102.882,552.549 101.5,550.5 Z"/></g>
<g><path style="opacity:1" fill="#e1f0f9" d="M 530.5,554.5 C 529.089,556.914 527.089,558.581 524.5,559.5C 525.911,557.086 527.911,555.419 530.5,554.5 Z"/></g>
<g><path style="opacity:1" fill="#e5f2f9" d="M 106.5,555.5 C 109.089,556.419 111.089,558.086 112.5,560.5C 109.911,559.581 107.911,557.914 106.5,555.5 Z"/></g>
<g><path style="opacity:1" fill="#d6ebf6" d="M 112.5,560.5 C 114.749,561.08 116.415,562.413 117.5,564.5C 115.251,563.92 113.585,562.587 112.5,560.5 Z"/></g>
<g><path style="opacity:1" fill="#eaf5fa" d="M 524.5,559.5 C 524.586,560.496 524.252,561.329 523.5,562C 521.595,563.421 519.595,564.588 517.5,565.5C 519.234,562.8 521.568,560.8 524.5,559.5 Z"/></g>
<g><path style="opacity:1" fill="#e0f0f8" d="M 117.5,564.5 C 120.089,565.419 122.089,567.086 123.5,569.5C 120.911,568.581 118.911,566.914 117.5,564.5 Z"/></g>
<g><path style="opacity:1" fill="#e3f1f9" d="M 123.5,569.5 C 125.404,569.738 126.738,570.738 127.5,572.5C 125.596,572.262 124.262,571.262 123.5,569.5 Z"/></g>
<g><path style="opacity:1" fill="#ebf5fa" d="M 127.5,572.5 C 138.175,579.503 148.842,586.503 159.5,593.5C 147.746,588.065 137.079,581.065 127.5,572.5 Z"/></g>
<g><path style="opacity:1" fill="#e8f4fa" d="M 517.5,565.5 C 505.854,575.965 493.187,585.132 479.5,593C 477.846,593.608 476.179,594.108 474.5,594.5C 489.101,585.232 503.435,575.566 517.5,565.5 Z"/></g>
<g><path style="opacity:1" fill="#e1f1f9" d="M 161.5,594.5 C 163.674,594.75 165.341,595.75 166.5,597.5C 164.326,597.25 162.659,596.25 161.5,594.5 Z"/></g>
<g><path style="opacity:1" fill="#2197d4" d="M 169.5,597.5 C 268.833,596.167 368.167,596.167 467.5,597.5C 464.098,599.528 460.765,601.528 457.5,603.5C 452.05,605.061 447.05,607.394 442.5,610.5C 410.615,622.733 377.615,630.566 343.5,634C 328.17,634.5 312.837,634.667 297.5,634.5C 282.676,633.551 268.01,631.551 253.5,628.5C 248.545,626.11 243.212,624.776 237.5,624.5C 228.75,622.479 220.084,620.146 211.5,617.5C 207.466,615.263 203.132,613.596 198.5,612.5C 197.22,611.069 195.553,610.402 193.5,610.5C 192.486,609.326 191.153,608.66 189.5,608.5C 188.508,608.672 187.842,608.338 187.5,607.5C 184.918,605.258 181.918,603.924 178.5,603.5C 177.817,601.824 176.483,601.157 174.5,601.5C 173.817,599.824 172.483,599.157 170.5,599.5C 170.672,598.508 170.338,597.842 169.5,597.5 Z"/></g>
<g><path style="opacity:1" fill="#abd4ee" d="M 166.5,597.5 C 167.5,597.5 168.5,597.5 169.5,597.5C 170.338,597.842 170.672,598.508 170.5,599.5C 168.847,599.34 167.514,598.674 166.5,597.5 Z"/></g>
<g><path style="opacity:1" fill="#a1d0eb" d="M 170.5,599.5 C 172.483,599.157 173.817,599.824 174.5,601.5C 172.847,601.34 171.514,600.674 170.5,599.5 Z"/></g>
<g><path style="opacity:1" fill="#e4f1f9" d="M 474.5,594.5 C 469.591,598.79 463.924,601.79 457.5,603.5C 460.765,601.528 464.098,599.528 467.5,597.5C 469.713,596.227 472.046,595.227 474.5,594.5 Z"/></g>
<g><path style="opacity:1" fill="#a0cfeb" d="M 174.5,601.5 C 176.483,601.157 177.817,601.824 178.5,603.5C 176.847,603.34 175.514,602.674 174.5,601.5 Z"/></g>
<g><path style="opacity:1" fill="#cde6f4" d="M 178.5,603.5 C 181.918,603.924 184.918,605.258 187.5,607.5C 184.088,606.958 181.088,605.625 178.5,603.5 Z"/></g>
<g><path style="opacity:1" fill="#d9ecf7" d="M 457.5,603.5 C 452.961,606.6 447.961,608.933 442.5,610.5C 447.05,607.394 452.05,605.061 457.5,603.5 Z"/></g>
<g><path style="opacity:1" fill="#ebf5fa" d="M 189.5,608.5 C 191.153,608.66 192.486,609.326 193.5,610.5C 191.62,610.771 190.287,610.104 189.5,608.5 Z"/></g>
<g><path style="opacity:1" fill="#e6f3fa" d="M 193.5,610.5 C 195.553,610.402 197.22,611.069 198.5,612.5C 196.447,612.598 194.78,611.931 193.5,610.5 Z"/></g>
<g><path style="opacity:1" fill="#ebf5fa" d="M 198.5,612.5 C 203.132,613.596 207.466,615.263 211.5,617.5C 206.728,616.801 202.395,615.134 198.5,612.5 Z"/></g>
<g><path style="opacity:1" fill="#5db0de" d="M 237.5,624.5 C 243.212,624.776 248.545,626.11 253.5,628.5C 247.949,627.584 242.615,626.25 237.5,624.5 Z"/></g>
<g><path style="opacity:1" fill="#f0f7fb" d="M 211.5,617.5 C 220.084,620.146 228.75,622.479 237.5,624.5C 242.615,626.25 247.949,627.584 253.5,628.5C 268.01,631.551 282.676,633.551 297.5,634.5C 306.318,635.493 315.318,635.827 324.5,635.5C 324.5,635.833 324.5,636.167 324.5,636.5C 315.167,636.5 305.833,636.5 296.5,636.5C 271.148,634.085 246.148,629.252 221.5,622C 217.939,620.768 214.606,619.268 211.5,617.5 Z"/></g>
<g><path style="opacity:1" fill="#deeff8" d="M 442.5,610.5 C 420.468,620.341 397.468,627.508 373.5,632C 362.366,633.597 351.366,635.097 340.5,636.5C 335.5,636.5 330.5,636.5 325.5,636.5C 325.5,635.833 325.167,635.5 324.5,635.5C 315.318,635.827 306.318,635.493 297.5,634.5C 312.837,634.667 328.17,634.5 343.5,634C 377.615,630.566 410.615,622.733 442.5,610.5 Z"/></g>
</svg>
