<?xml version="1.0" standalone="yes"?>
<svg xmlns="http://www.w3.org/2000/svg" width="640" height="703">
<path style="fill:#ffffff; stroke:none;" d="M0 0L0 703L640 703L640 0L0 0z"/>
<path style="fill:#f96fa9; stroke:none;" d="M301 21.4244C260.574 26.7324 222.526 34.5081 186 53.7809C74.4111 112.661 7.85118 238.631 19.8302 364C23.3104 400.423 31.5394 435.276 46.0008 469C51.5964 482.049 58.0089 498.984 70.0039 507.377C73.5776 509.878 77.7691 511.729 82 512.761C127.86 523.943 127.34 442.611 173 455.788C203.76 464.664 208.261 515.523 244 513.896C282.476 512.144 282.502 447.516 324 455.262C357.342 461.486 361.959 518.482 400 513.71C434.709 509.356 435.184 454.689 471 454.572C511.168 454.44 513.733 519.03 557 513.714C581.719 510.676 595.202 481.074 602.656 460C621.782 405.929 627.44 350.885 621.05 294C605.956 159.623 497.253 41.5035 362 23.7184C342.318 21.1304 320.825 18.8214 301 21.4244z"/>
<path style="fill:#ffffff; stroke:none;" d="M297 107.425C210.347 119.221 156.04 202.243 161.91 286C164.137 317.772 173.44 348.894 195.171 373C230.932 412.671 293.069 419.284 343 412.718C366.887 409.577 391.229 402.482 411 388.254C442.252 365.763 457.179 330.241 461.166 293C471.076 200.434 399.666 93.4494 297 107.425z"/>
<path style="fill:#9a80b6; stroke:none;" d="M265 153L265 154L269 154L265 153z"/>
<path style="fill:#4f57a7; stroke:none;" d="M269 153L269 154L273 154L269 153z"/>
<path style="fill:#9a80b6; stroke:none;" d="M273 153L273 154L278 154L273 153M259.667 154.333L260.333 154.667L259.667 154.333z"/>
<path style="fill:#4f57a7; stroke:none;" d="M261 154L262 155L261 154z"/>
<path style="fill:#161a77; stroke:none;" d="M262 154.464C190.585 167.087 207.126 285.032 280 273.561C352.229 262.192 335.226 141.52 262 154.464z"/>
<path style="fill:#4f57a7; stroke:none;" d="M281 154L282 155L281 154z"/>
<path style="fill:#9a80b6; stroke:none;" d="M282 154L283 155L282 154M256 155L257 156L256 155z"/>
<path style="fill:#4f57a7; stroke:none;" d="M257 155L258 156L257 155M285 155L286 156L285 155z"/>
<path style="fill:#9a80b6; stroke:none;" d="M286 155L287 156L286 155M253 156L254 157L253 156z"/>
<path style="fill:#4f57a7; stroke:none;" d="M288 156L289 157L288 156z"/>
<path style="fill:#9a80b6; stroke:none;" d="M289 156L290 157L289 156M250 157L251 158L250 157z"/>
<path style="fill:#4f57a7; stroke:none;" d="M251 157L252 158L251 157M291 157L292 158L291 157z"/>
<path style="fill:#9a80b6; stroke:none;" d="M248 158L249 159L248 158z"/>
<path style="fill:#4f57a7; stroke:none;" d="M293 158L294 159L293 158z"/>
<path style="fill:#9a80b6; stroke:none;" d="M294 158L295 159L294 158M246 159L247 160L246 159z"/>
<path style="fill:#4f57a7; stroke:none;" d="M295 159L296 160L295 159z"/>
<path style="fill:#9a80b6; stroke:none;" d="M244 160L245 161L244 160z"/>
<path style="fill:#4f57a7; stroke:none;" d="M297 160L298 161L297 160M243 161L244 162L243 161z"/>
<path style="fill:#9a80b6; stroke:none;" d="M299 161L300 162L299 161M241 162L242 163L241 162M302 163L303 164L302 163M238 164L239 165L238 164z"/>
<path style="fill:#4f57a7; stroke:none;" d="M303 164L304 165L303 164z"/>
<path style="fill:#9a80b6; stroke:none;" d="M237 165L238 166L237 165z"/>
<path style="fill:#4f57a7; stroke:none;" d="M236 166L237 167L236 166z"/>
<path style="fill:#9a80b6; stroke:none;" d="M306 166L307 167L306 166M307 167L308 168L307 167M308 168L309 169L308 168z"/>
<path style="fill:#4f57a7; stroke:none;" d="M309 169L310 170L309 169M310 170L311 171L310 170z"/>
<path style="fill:#9a80b6; stroke:none;" d="M311 171L312 172L311 171z"/>
<path style="fill:#4f57a7; stroke:none;" d="M255 172L256 173L255 172z"/>
<path style="fill:#9a80b6; stroke:none;" d="M256.667 172.333L257.333 172.667L256.667 172.333z"/>
<path style="fill:#ffffff; stroke:none;" d="M258 172.465C222.17 178.867 230.412 233.744 266 227.384C301.537 221.034 293.258 166.164 258 172.465z"/>
<path style="fill:#9a80b6; stroke:none;" d="M266.667 172.333L267.333 172.667L266.667 172.333z"/>
<path style="fill:#4f57a7; stroke:none;" d="M268 172L269 173L268 172z"/>
<path style="fill:#9a80b6; stroke:none;" d="M312 172L313 173L312 172z"/>
<path style="fill:#4f57a7; stroke:none;" d="M229 173L230 174L229 173M252 173L253 174L252 173z"/>
<path style="fill:#9a80b6; stroke:none;" d="M253 173L254 174L253 173M270 173L271 174L270 173z"/>
<path style="fill:#4f57a7; stroke:none;" d="M271 173L272 174L271 173z"/>
<path style="fill:#9a80b6; stroke:none;" d="M313 173L314 174L313 173M228 174L229 175L228 174M250 174L251 175L250 174M273 174L274 175L273 174M227 175L228 176L227 175M248 175L249 176L248 175z"/>
<path style="fill:#4f57a7; stroke:none;" d="M275 175L276 176L275 175z"/>
<path style="fill:#9a80b6; stroke:none;" d="M246 176L247 177L246 176z"/>
<path style="fill:#4f57a7; stroke:none;" d="M277 176L278 177L277 176M315 176L316 177L315 176M226 177L227 178L226 177z"/>
<path style="fill:#9a80b6; stroke:none;" d="M245 177L246 178L245 177M278 177L279 178L278 177M316 177L317 178L316 177M225 178L226 179L225 178M279 178L280 179L279 178z"/>
<path style="fill:#4f57a7; stroke:none;" d="M242 179L243 180L242 179M317 179L318 180L317 179M224 180L225 181L224 180M241 180L242 181L241 180z"/>
<path style="fill:#9a80b6; stroke:none;" d="M318 180L319 181L318 180M223 181L224 182L223 181z"/>
<path style="fill:#4f57a7; stroke:none;" d="M240 181L241 182L240 181z"/>
<path style="fill:#9a80b6; stroke:none;" d="M283 182L284 183L283 182M319 182L320 183L319 182M222 183L223 184L222 183M284 183L285 184L284 183M238 184L239 185L238 184z"/>
<path style="fill:#4f57a7; stroke:none;" d="M285 184L286 185L285 184M320 184L321 185L320 184M221 185L222 186L221 185M237 185L238 186L237 185z"/>
<path style="fill:#9a80b6; stroke:none;" d="M237 186L238 187L237 186M286 186L287 187L286 186z"/>
<path style="fill:#4f57a7; stroke:none;" d="M321 186L322 187L321 186z"/>
<path style="fill:#9a80b6; stroke:none;" d="M220 187L221 188L220 187z"/>
<path style="fill:#4f57a7; stroke:none;" d="M236 187L237 188L236 187z"/>
<path style="fill:#9a80b6; stroke:none;" d="M287 188L288 189L287 188M322 188L323 189L322 188M219 189L220 190L219 189z"/>
<path style="fill:#4f57a7; stroke:none;" d="M235 189L236 190L235 189z"/>
<path style="fill:#9a80b6; stroke:none;" d="M235 190L236 191L235 190z"/>
<path style="fill:#4f57a7; stroke:none;" d="M288 190L289 191L288 190z"/>
<path style="fill:#9a80b6; stroke:none;" d="M323 190L324 191L323 190z"/>
<path style="fill:#4f57a7; stroke:none;" d="M323 191L324 192L323 191z"/>
<path style="fill:#9a80b6; stroke:none;" d="M218 192L219 193L218 192z"/>
<path style="fill:#4f57a7; stroke:none;" d="M234 192L235 193L234 192z"/>
<path style="fill:#9a80b6; stroke:none;" d="M234 193L235 194L234 193z"/>
<path style="fill:#4f57a7; stroke:none;" d="M289 193L290 194L289 193z"/>
<path style="fill:#9a80b6; stroke:none;" d="M324 193L325 194L324 193M289.333 194.667L289.667 195.333L289.333 194.667z"/>
<path style="fill:#4f57a7; stroke:none;" d="M324 194L325 195L324 194z"/>
<path style="fill:#9a80b6; stroke:none;" d="M217 195L218 196L217 195M325 196L326 197L325 196z"/>
<path style="fill:#4f57a7; stroke:none;" d="M233 197L233 203L234 203L233 197M325 197L326 198L325 197z"/>
<path style="fill:#9a80b6; stroke:none;" d="M216.333 198.667L216.667 199.333L216.333 198.667z"/>
<path style="fill:#4f57a7; stroke:none;" d="M216 200L217 201L216 200z"/>
<path style="fill:#9a80b6; stroke:none;" d="M326.333 200.667L326.667 201.333L326.333 200.667z"/>
<path style="fill:#4f57a7; stroke:none;" d="M326 202L327 203L326 202z"/>
<path style="fill:#9a80b6; stroke:none;" d="M215.333 203.667L215.667 204.333L215.333 203.667M289.333 204.667L289.667 205.333L289.333 204.667z"/>
<path style="fill:#4f57a7; stroke:none;" d="M215.333 205.667L215.667 206.333L215.333 205.667z"/>
<path style="fill:#9a80b6; stroke:none;" d="M234 206L235 207L234 206z"/>
<path style="fill:#4f57a7; stroke:none;" d="M289 206L290 207L289 206z"/>
<path style="fill:#9a80b6; stroke:none;" d="M327 206L327 210L328 210L327 206z"/>
<path style="fill:#4f57a7; stroke:none;" d="M234 207L235 208L234 207z"/>
<path style="fill:#9a80b6; stroke:none;" d="M235 209L236 210L235 209z"/>
<path style="fill:#4f57a7; stroke:none;" d="M288 209L289 210L288 209M235 210L236 211L235 210M327 210L327 218L328 218L327 210z"/>
<path style="fill:#9a80b6; stroke:none;" d="M287 211L288 212L287 211z"/>
<path style="fill:#4f57a7; stroke:none;" d="M236 212L237 213L236 212z"/>
<path style="fill:#9a80b6; stroke:none;" d="M237 213L238 214L237 213M286 213L287 214L286 213M238 215L239 216L238 215z"/>
<path style="fill:#4f57a7; stroke:none;" d="M285 215L286 216L285 215z"/>
<path style="fill:#9a80b6; stroke:none;" d="M284 216L285 217L284 216M283 217L284 218L283 217z"/>
<path style="fill:#4f57a7; stroke:none;" d="M240 218L241 219L240 218z"/>
<path style="fill:#9a80b6; stroke:none;" d="M327 218L327 222L328 222L327 218z"/>
<path style="fill:#4f57a7; stroke:none;" d="M241 219L242 220L241 219M242 220L243 221L242 220M215.333 221.667L215.667 222.333L215.333 221.667z"/>
<path style="fill:#9a80b6; stroke:none;" d="M279 221L280 222L279 221M245 222L246 223L245 222M278 222L279 223L278 222M215.333 223.667L215.667 224.333L215.333 223.667M246 223L247 224L246 223z"/>
<path style="fill:#4f57a7; stroke:none;" d="M277 223L278 224L277 223z"/>
<path style="fill:#9a80b6; stroke:none;" d="M248 224L249 225L248 224z"/>
<path style="fill:#4f57a7; stroke:none;" d="M275 224L276 225L275 224z"/>
<path style="fill:#9a80b6; stroke:none;" d="M250 225L251 226L250 225M273 225L274 226L273 225z"/>
<path style="fill:#4f57a7; stroke:none;" d="M326 225L327 226L326 225M252 226L253 227L252 226z"/>
<path style="fill:#9a80b6; stroke:none;" d="M253 226L254 227L253 226M270 226L271 227L270 226z"/>
<path style="fill:#4f57a7; stroke:none;" d="M271 226L272 227L271 226z"/>
<path style="fill:#9a80b6; stroke:none;" d="M326.333 226.667L326.667 227.333L326.333 226.667z"/>
<path style="fill:#4f57a7; stroke:none;" d="M216 227L217 228L216 227M255 227L256 228L255 227z"/>
<path style="fill:#9a80b6; stroke:none;" d="M256.667 227.333L257.333 227.667L256.667 227.333M265.667 227.333L266.333 227.667L265.667 227.333z"/>
<path style="fill:#4f57a7; stroke:none;" d="M267 227L268 228L267 227z"/>
<path style="fill:#9a80b6; stroke:none;" d="M216.333 228.667L216.667 229.333L216.333 228.667z"/>
<path style="fill:#4f57a7; stroke:none;" d="M325 230L326 231L325 230M217 231L218 232L217 231z"/>
<path style="fill:#9a80b6; stroke:none;" d="M325 231L326 232L325 231M217 232L218 233L217 232z"/>
<path style="fill:#4f57a7; stroke:none;" d="M324 233L325 234L324 233z"/>
<path style="fill:#9a80b6; stroke:none;" d="M324 234L325 235L324 234M218 235L219 236L218 235z"/>
<path style="fill:#4f57a7; stroke:none;" d="M323 236L324 237L323 236M219 237L220 238L219 237z"/>
<path style="fill:#9a80b6; stroke:none;" d="M323 237L324 238L323 237M219 238L220 239L219 238M322 239L323 240L322 239M220 240L221 241L220 240z"/>
<path style="fill:#4f57a7; stroke:none;" d="M321 241L322 242L321 241z"/>
<path style="fill:#9a80b6; stroke:none;" d="M221 242L222 243L221 242z"/>
<path style="fill:#4f57a7; stroke:none;" d="M320 243L321 244L320 243z"/>
<path style="fill:#9a80b6; stroke:none;" d="M222 244L223 245L222 244M319 245L320 246L319 245M223 246L224 247L223 246z"/>
<path style="fill:#4f57a7; stroke:none;" d="M224 247L225 248L224 247z"/>
<path style="fill:#9a80b6; stroke:none;" d="M318 247L319 248L318 247z"/>
<path style="fill:#4f57a7; stroke:none;" d="M317 248L318 249L317 248z"/>
<path style="fill:#9a80b6; stroke:none;" d="M225 249L226 250L225 249z"/>
<path style="fill:#4f57a7; stroke:none;" d="M226 250L227 251L226 250z"/>
<path style="fill:#9a80b6; stroke:none;" d="M316 250L317 251L316 250z"/>
<path style="fill:#4f57a7; stroke:none;" d="M315 251L316 252L315 251z"/>
<path style="fill:#9a80b6; stroke:none;" d="M227 252L228 253L227 252M228 253L229 254L228 253z"/>
<path style="fill:#4f57a7; stroke:none;" d="M229 254L230 255L229 254z"/>
<path style="fill:#9a80b6; stroke:none;" d="M313 254L314 255L313 254z"/>
<path style="fill:#4f57a7; stroke:none;" d="M230 255L231 256L230 255z"/>
<path style="fill:#9a80b6; stroke:none;" d="M312 255L313 256L312 255M311 256L312 257L311 256z"/>
<path style="fill:#4f57a7; stroke:none;" d="M310 257L311 258L310 257z"/>
<path style="fill:#9a80b6; stroke:none;" d="M309 258L310 259L309 258M308 259L309 260L308 259M307 260L308 261L307 260z"/>
<path style="fill:#4f57a7; stroke:none;" d="M236 261L237 262L236 261z"/>
<path style="fill:#9a80b6; stroke:none;" d="M306 261L307 262L306 261M237 262L238 263L237 262M238 263L239 264L238 263z"/>
<path style="fill:#4f57a7; stroke:none;" d="M303 263L304 264L303 263M240 264L241 265L240 264z"/>
<path style="fill:#9a80b6; stroke:none;" d="M302 264L303 265L302 264M241 265L242 266L241 265z"/>
<path style="fill:#4f57a7; stroke:none;" d="M243 266L244 267L243 266z"/>
<path style="fill:#9a80b6; stroke:none;" d="M299 266L300 267L299 266M244 267L245 268L244 267z"/>
<path style="fill:#4f57a7; stroke:none;" d="M297 267L298 268L297 267z"/>
<path style="fill:#9a80b6; stroke:none;" d="M246 268L247 269L246 268z"/>
<path style="fill:#4f57a7; stroke:none;" d="M295 268L296 269L295 268z"/>
<path style="fill:#9a80b6; stroke:none;" d="M248 269L249 270L248 269z"/>
<path style="fill:#4f57a7; stroke:none;" d="M293 269L294 270L293 269z"/>
<path style="fill:#9a80b6; stroke:none;" d="M294 269L295 270L294 269M250 270L251 271L250 270z"/>
<path style="fill:#4f57a7; stroke:none;" d="M251 270L252 271L251 270M291 270L292 271L291 270z"/>
<path style="fill:#9a80b6; stroke:none;" d="M253 271L254 272L253 271z"/>
<path style="fill:#4f57a7; stroke:none;" d="M288 271L289 272L288 271z"/>
<path style="fill:#9a80b6; stroke:none;" d="M289 271L290 272L289 271M256 272L257 273L256 272z"/>
<path style="fill:#4f57a7; stroke:none;" d="M257 272L258 273L257 272M285 272L286 273L285 272z"/>
<path style="fill:#9a80b6; stroke:none;" d="M286 272L287 273L286 272M259.667 273.333L260.333 273.667L259.667 273.333z"/>
<path style="fill:#4f57a7; stroke:none;" d="M261 273L262 274L261 273M280.667 273.333L281.333 273.667L280.667 273.333z"/>
<path style="fill:#9a80b6; stroke:none;" d="M282 273L283 274L282 273M265 274L265 275L270 275L265 274z"/>
<path style="fill:#4f57a7; stroke:none;" d="M270 274L270 275L273 275L270 274z"/>
<path style="fill:#9a80b6; stroke:none;" d="M273 274L273 275L278 275L273 274M162 454L162 455L166 455L162 454M316 454L316 455L320 455L316 454M469 454L469 455L473 455L469 454M156 455L157 456L156 455z"/>
<path style="fill:#4f57a7; stroke:none;" d="M157 455.518C144.559 458.172 131.041 471.737 127.51 484C124.479 494.526 127 509.058 127 520C127 551.165 120.274 600.54 163 606.7C168.363 607.473 174.698 607.455 180 606.331C217.868 598.301 214 560.919 214 531C214 521.267 216.583 507.225 213.411 498C211.576 492.662 206.486 487.672 203.33 483C192.507 466.973 178.369 450.959 157 455.518z"/>
<path style="fill:#9a80b6; stroke:none;" d="M172 455L173 456L172 455z"/>
<path style="fill:#4f57a7; stroke:none;" d="M310 455.529C280.223 462.365 283 492.722 283 516L283 606C283 622.539 280.925 640.862 285.156 657C291.635 681.713 316.915 697.416 342 691.985C389.382 681.727 381 627.571 381 591L381 560C381 545.36 384.321 526.173 380.682 512.015C379.004 505.487 369.676 500.136 365.465 495C350.692 476.987 338.435 449.002 310 455.529z"/>
<path style="fill:#9a80b6; stroke:none;" d="M463 455L464 456L463 455z"/>
<path style="fill:#4f57a7; stroke:none;" d="M464 455.518C441.999 460.219 449 488.769 449 506C449 525.306 450 544.633 450 564C450 574.809 448.138 587.594 451.348 598C457.881 619.175 478.946 632.505 501 628.536C542.267 621.109 537 577.567 537 546C537 536.663 540.078 520.804 536.397 512.209C534.839 508.572 529.877 506.236 527.004 503.711C521.873 499.201 517.638 493.57 513.721 488C501.622 470.796 488.28 450.33 464 455.518z"/>
<path style="fill:#9a80b6; stroke:none;" d="M479 455L480 456L479 455M153 456L154 457L153 456M175 456L176 457L175 456M306 456L307 457L306 456M329 456L330 457L329 456M460 456L461 457L460 456M482 456L483 457L482 456M304 457L305 458L304 457M331 457L332 458L331 457M302 458L303 459L302 458M335 459L336 460L335 459M454 459L455 460L454 459M183 460L184 461L183 460M299 460L300 461L299 460M490 460L491 461L490 460M184 461L185 462L184 461M143 462L144 463L143 462M339 462L340 463L339 462M450 462L451 463L450 462M340 463L341 464L340 463M449 463L450 464L449 463M138 467L139 468L138 467M137 468L138 469L137 468M346 469L347 470L346 469M289 470L290 471L289 470M347 470L348 471L347 470M194 471L195 472L194 471M134 472L135 473L134 472M195 472L196 473L195 472M502 472L503 473L502 472M503 473L504 474L503 473M350 474L351 475L350 474M132 475L133 476L132 475M198 476L199 477L198 476M505 476L506 477L505 476M130 478L131 479L130 478M353 478L354 479L353 478M283 479L284 480L283 479M201 480L202 481L201 480M508 480L509 481L508 480M128 481L129 482L128 481M355 481L356 482L355 481M203 483L204 484L203 483M510 483L511 484L510 483M357 484L358 485L357 484M126 485L127 486L126 485M358 485L359 486L358 485M205 486L206 487L205 486M512 486L513 487L512 486M360 488L361 489L360 488M207 489L208 490L207 489M514 489L515 490L514 489M208 490L209 491L208 490M515 490L516 491L515 490M362 491L363 492L362 491M363 492L364 493L363 492M210 493L211 494L210 493M517 493L518 494L517 493M518 494L519 495L518 494M365 495L366 496L365 495M366 496L367 497L366 496M214 498L214 570L215 570L215 521L214 498M521 498L522 499L521 498M522 499L523 500L522 499M523 500L524 501L523 500M524 501L525 502L524 501M525 502L526 503L525 502M526 503L527 504L526 503M527 504L528 505L527 504M376 506L377 507L376 506M531 507L532 508L531 507M379 508L380 509L379 508M532 508L533 509L532 508M380 509L381 510L380 509M534 509L535 510L534 509M536 510L537 511L536 510M449 520L449 592L450 592L450 543L449 520M127 569L127 573L128 573L127 569M213.333 573.667L213.667 574.333L213.333 573.667M128.333 574.667L128.667 575.333L128.333 574.667M212 577L213 578L212 577M129 578L130 579L129 578M211.333 579.667L211.667 580.333L211.333 579.667M130 581L131 582L130 581M210 582L211 583L210 582M131 583L132 584L131 583M209 584L210 585L209 584M132 585L133 586L132 585M133 586L134 587L133 586M208 586L209 587L208 586M207 587L208 588L207 587M134 588L135 589L134 588M135 589L136 590L135 589M206 589L207 590L206 589M205 590L206 591L205 590M204 591L205 592L204 591M536 591L536 594L537 594L536 591M137 592L138 593L137 592M138 593L139 594L138 593M139 594L140 595L139 594M140 595L141 596L140 595M450.333 595.667L450.667 596.333L450.333 595.667M141 596L142 597L141 596M535.333 596.667L535.667 597.333L535.333 596.667M142 597L143 598L142 597M198 597L199 598L198 597M197 598L198 599L197 598M451.333 598.667L451.667 599.333L451.333 598.667M145 599L146 600L145 599M196 599L197 600L196 599M146 600L147 601L146 600M194 600L195 601L194 600M534 600L535 601L534 600M148 601L149 602L148 601M452.333 601.667L452.667 602.333L452.333 601.667M150 602L151 603L150 602M191 602L192 603L191 602M533.333 602.667L533.667 603.333L533.333 602.667M152 603L153 604L152 603M189 603L190 604L189 603M154 604L155 605L154 604M186.667 604.333L187.333 604.667L186.667 604.333M453 604L454 605L453 604M157 605L158 606L157 605M183.667 605.333L184.333 605.667L183.667 605.333M532 605L533 606L532 605M160.667 606.333L161.333 606.667L160.667 606.333M179.667 606.333L180.333 606.667L179.667 606.333M454 606L455 607L454 606M165 607L165 608L176 608L165 607M531 607L532 608L531 607M530 608L531 609L530 608M456 609L457 610L456 609M529 610L530 611L529 610M528 611L529 612L528 611M458 612L459 613L458 612M459 613L460 614L459 613M460 614L461 615L460 614M526 614L527 615L526 614M525 615L526 616L525 615M524 616L525 617L524 616M523 617L524 618L523 617M464 618L465 619L464 618M522 618L523 619L522 618M465 619L466 620L465 619M466 620L467 621L466 620M519 620L520 621L519 620M518 621L519 622L518 621M469 622L470 623L469 622M471 623L472 624L471 623M515 623L516 624L515 623M472 624L473 625L472 624M513 624L514 625L513 624M474.667 625.333L475.333 625.667L474.667 625.333M511 625L512 626L511 625M477 626L478 627L477 626M508.667 626.333L509.333 626.667L508.667 626.333M479.667 627.333L480.333 627.667L479.667 627.333M505.667 627.333L506.333 627.667L505.667 627.333M483.667 628.333L484.333 628.667L483.667 628.333M501 628L501 629L504 629L501 628M489 629L489 630L498 630L489 629M283 645L283 651L284 651L283 645M380 645L380 651L381 651L380 645M284 654L284 657L285 657L284 654M379 654L379 657L380 657L379 654M285.333 658.667L285.667 659.333L285.333 658.667M378.333 658.667L378.667 659.333L378.333 658.667M286.333 661.667L286.667 662.333L286.333 661.667M377.333 661.667L377.667 662.333L377.333 661.667M287 664L288 665L287 664M376 664L377 665L376 664M288 666L289 667L288 666M375 666L376 667L375 666M289 668L290 669L289 668M374 668L375 669L374 668M290 670L291 671L290 670M373 670L374 671L373 670M291 671L292 672L291 671M372 671L373 672L372 671M293 674L294 675L293 674M370 674L371 675L370 674M294 675L295 676L294 675M369 675L370 676L369 675M295 676L296 677L295 676M368 676L369 677L368 676M300 681L301 682L300 681M363 681L364 682L363 681M301 682L302 683L301 682M362 682L363 683L362 682M302 683L303 684L302 683M361 683L362 684L361 683M305 685L306 686L305 685M358 685L359 686L358 685M307 686L308 687L307 686M356 686L357 687L356 686M308 687L309 688L308 687M355 687L356 688L355 687M310.667 688.333L311.333 688.667L310.667 688.333M352.667 688.333L353.333 688.667L352.667 688.333M313 689L314 690L313 689M350 689L351 690L350 689M315.667 690.333L316.333 690.667L315.667 690.333M347.667 690.333L348.333 690.667L347.667 690.333M318.667 691.333L319.333 691.667L318.667 691.333M344.667 691.333L345.333 691.667L344.667 691.333M322 692L322 693L325 693L322 692M339 692L339 693L342 693L339 692M331.667 693.333L332.333 693.667L331.667 693.333z"/>
</svg>
